SplineFontDB: 3.0
FontName: AX28ScriptStroke
FullName: AX28ScriptStroke
FamilyName: AX28Script
Weight: Regular
Copyright: Copyright (c) 2016 Stephanie Vilayphiou, under the Open Font License, see <http://scripts.sil.org/OFL>.
UComments: "2016-5-18: Created with FontForge (http://fontforge.org)"
Version: 001.000
ItalicAngle: 0
UnderlinePosition: -100
UnderlineWidth: 50
Ascent: 800
Descent: 200
InvalidEm: 0
LayerCount: 2
Layer: 0 0 "Arri+AOgA-re" 1
Layer: 1 0 "Avant" 0
XUID: [1021 841 -89426724 5212920]
StyleMap: 0x0000
FSType: 0
OS2Version: 0
OS2_WeightWidthSlopeOnly: 0
OS2_UseTypoMetrics: 1
CreationTime: 1463580175
ModificationTime: 1469022093
PfmFamily: 65
TTFWeight: 400
TTFWidth: 5
LineGap: 90
VLineGap: 0
Panose: 3 0 5 3 0 0 3 13 0 0
OS2TypoAscent: 0
OS2TypoAOffset: 1
OS2TypoDescent: 0
OS2TypoDOffset: 1
OS2TypoLinegap: 90
OS2WinAscent: 0
OS2WinAOffset: 1
OS2WinDescent: 0
OS2WinDOffset: 1
HheadAscent: 0
HheadAOffset: 1
HheadDescent: 0
HheadDOffset: 1
OS2Vendor: 'PfEd'
MarkAttachClasses: 1
DEI: 91125

StartChar: A
Encoding: 65 65 0
Width: 480
VWidth: 0
Flags: HW
LayerCount: 2
Fore
SplineSet
14.0546875 -3.5654296875 m 4
 56.6826171875 103.961914062 105.657226562 208.938476562 160.638671875 310.651367188 c 4
 209.748046875 401.481445312 263.650390625 489.659179688 320.286132812 575.966796875 c 4
 329.331054688 589.739257812 338.647460938 603.681640625 351.337890625 614.155273438 c 4
 357.68359375 619.392578125 364.872070312 623.677734375 372.634765625 626.26171875 c 4
 380.431640625 628.846679688 388.870117188 629.662109375 396.903320312 628.030273438 c 4
 405.74609375 626.26171875 413.879882812 621.603515625 420.360351562 615.311523438 c 4
 426.840820312 609.020507812 431.701171875 601.131835938 435.008789062 592.731445312 c 4
 441.624023438 575.865234375 442.130859375 557.229492188 441.354492188 539.104492188 c 4
 439.666992188 498.875 432.20703125 459.155273438 424.444335938 419.674804688 c 4
 398.455078125 287.220703125 368.956054688 155.447265625 335.98046875 24.5908203125 c 4
 335.98046875 17.1435546875 337.87109375 9.62890625 341.71875 3.26953125 c 4
 346.950195312 -5.2998046875 355.5234375 -11.7275390625 365.142578125 -14.3798828125 c 4
 376.955078125 -17.64453125 389.713867188 -15.2978515625 400.953125 -10.435546875 c 4
 412.2265625 -5.6064453125 422.284179688 1.63671875 432.375976562 8.6083984375 c 4
 447.90234375 19.2861328125 463.798828125 29.4541015625 480 39.078125 c 1028
37.005859375 233.864257812 m 4
 50.4052734375 222.8125 66.7412109375 215.3984375 83.853515625 212.677734375 c 4
 103.53125 209.549804688 123.579101562 212.474609375 143.42578125 213.970703125 c 4
 176.874023438 216.487304688 210.491210938 214.922851562 243.803710938 211.045898438 c 4
 288.66015625 205.876953125 333.078125 196.59375 376.280273438 183.3984375 c 1028
EndSplineSet
EndChar

StartChar: asciicircum
Encoding: 94 94 1
Width: 480
VWidth: 0
Flags: HW
LayerCount: 2
Fore
SplineSet
139.01953125 473.603515625 m 4
 159.28125 494.442382812 179.28125 515.610351562 198.958984375 537.040039062 c 4
 212.791015625 551.981445312 226.4921875 567.120117188 240 582.388671875 c 5
 253.248046875 565.677734375 266.94921875 549.360351562 281.041992188 533.370117188 c 4
 300.263671875 511.546875 320.264648438 490.379882812 340.98046875 469.999023438 c 1028
EndSplineSet
EndChar

StartChar: B
Encoding: 66 66 2
Width: 480
VWidth: 0
Flags: HW
LayerCount: 2
Fore
SplineSet
275.481445312 472.0234375 m 4
 243.626953125 382.083007812 205.204101562 294.46875 160.622070312 210.110351562 c 4
 123.169921875 139.243164062 81.373046875 70.6728515625 35.5439453125 4.912109375 c 5
 75.4404296875 -9.0439453125 117.3203125 -17.3173828125 159.526367188 -19.578125 c 4
 222.600585938 -22.95703125 287.091796875 -12.560546875 343.505859375 15.849609375 c 4
 383.78125 36.1328125 419.759765625 65.71875 444.916015625 103.14453125 c 4
 460.939453125 126.983398438 472.567382812 154.209960938 475.49609375 182.783203125 c 4
 478.424804688 211.356445312 472.171875 241.31640625 455.424804688 264.65234375 c 4
 444.701171875 279.594726562 429.869140625 291.556640625 412.995117188 298.872070312 c 4
 396.12109375 306.1875 377.250976562 308.836914062 359.014648438 306.450195312 c 5
 375.505859375 305.689453125 392.1015625 307.244140625 408.165039062 311.053710938 c 4
 452.985351562 321.684570312 493.458984375 350.831054688 516.215820312 390.880859375 c 4
 538.97265625 430.930664062 543.146484375 481.447265625 525.639648438 524.0546875 c 4
 511.165039062 559.282226562 482.770507812 588.022460938 449.012695312 605.653320312 c 4
 415.25390625 623.28515625 376.434570312 630.181640625 338.392578125 628.358398438 c 4
 302.9765625 626.661132812 267.932617188 617.54296875 236.180664062 601.762695312 c 1028
EndSplineSet
EndChar

StartChar: C
Encoding: 67 67 3
Width: 480
VWidth: 0
Flags: HW
LayerCount: 2
Fore
SplineSet
521.146484375 525.114257812 m 4
 512.853515625 558.625 492.2265625 588.936523438 464.09765625 608.948242188 c 4
 435.96875 628.9609375 400.569335938 638.509765625 366.192382812 635.357421875 c 4
 340.869140625 633.03515625 316.379882812 624.044921875 294.633789062 610.864257812 c 4
 272.88671875 597.68359375 253.80859375 580.38671875 237.209960938 561.123046875 c 4
 204.012695312 522.59375 180.84375 476.671875 156.54296875 431.995117188 c 4
 123.1328125 370.571289062 86.5703125 309.583984375 69.8447265625 241.692382812 c 4
 61.4814453125 207.74609375 58.275390625 172.258789062 63.353515625 137.66796875 c 4
 68.4306640625 103.078125 82.0625 69.3955078125 104.73828125 42.78515625 c 4
 134.091796875 8.33984375 177.4921875 -12.669921875 222.302734375 -19.0068359375 c 4
 288.8515625 -28.4189453125 355.649414062 -7.33984375 418.754882812 15.7900390625 c 4
 439.262695312 23.306640625 459.6796875 31.0693359375 480 39.078125 c 1028
EndSplineSet
EndChar

StartChar: D
Encoding: 68 68 4
Width: 480
VWidth: 0
Flags: HW
LayerCount: 2
Fore
SplineSet
256.443359375 464.264648438 m 4
 237.946289062 432.362304688 221.376953125 399.342773438 206.85546875 365.446289062 c 4
 183.866210938 311.787109375 166.0625 256.083984375 146.040039062 201.248046875 c 4
 124.428710938 142.059570312 100.20703125 83.82421875 73.470703125 26.767578125 c 5
 101.025390625 16.25390625 129.600585938 8.4150390625 158.663085938 3.3974609375 c 4
 201.33984375 -3.9716796875 245.938476562 -5.119140625 287.30078125 7.7177734375 c 4
 336.501953125 22.9873046875 378.234375 57.3349609375 409.462890625 98.3076171875 c 4
 469.526367188 177.111328125 492.443359375 277.92578125 503.727539062 376.365234375 c 4
 507.745117188 411.41796875 510.486328125 446.91796875 506.091796875 481.92578125 c 4
 501.696289062 516.932617188 489.72265625 551.708007812 467.078125 578.763671875 c 4
 446.78515625 603.009765625 418.598632812 620.096679688 388.307617188 629.162109375 c 4
 358.017578125 638.227539062 325.69921875 639.5078125 294.369140625 635.250976562 c 4
 249.016601562 629.088867188 205.291992188 611.301757812 168.517578125 584.053710938 c 1028
EndSplineSet
EndChar

StartChar: E
Encoding: 69 69 5
Width: 480
VWidth: 0
Flags: HW
LayerCount: 2
Fore
SplineSet
439.197265625 580.1484375 m 4
 421.91796875 610.043945312 390.931640625 631.639648438 356.903320312 637.50390625 c 4
 325.008789062 643.000976562 291.346679688 634.861328125 264.322265625 617.052734375 c 4
 230.083007812 594.490234375 207.110351562 557.90625 192.935546875 519.4296875 c 4
 184.557617188 496.686523438 178.86328125 472.681640625 179.182617188 448.447265625 c 4
 179.500976562 424.211914062 186.138671875 399.666015625 200.543945312 380.174804688 c 4
 210.555664062 366.627929688 224.173828125 355.772460938 239.610351562 349.03125 c 4
 255.047851562 342.290039062 272.266601562 339.680664062 289.0078125 341.543945312 c 5
 264.2734375 343.642578125 239.234375 342.106445312 214.943359375 337.000976562 c 4
 157.1328125 324.849609375 103.6171875 291.6015625 68.8671875 243.831054688 c 4
 46.669921875 213.317382812 32.09765625 176.732421875 30.61328125 139.02734375 c 4
 29.12890625 101.323242188 41.375 62.650390625 66.798828125 34.767578125 c 4
 94.3369140625 4.564453125 134.899414062 -11.04296875 175.377929688 -16.7021484375 c 4
 218.03515625 -22.666015625 261.510742188 -18.6787109375 303.963867188 -11.4033203125 c 4
 364.250976562 -1.0703125 423.399414062 15.8916015625 480 39.078125 c 1028
EndSplineSet
EndChar

StartChar: F
Encoding: 70 70 6
Width: 480
VWidth: 0
Flags: HW
LayerCount: 2
Fore
SplineSet
133.270507812 538.762695312 m 4
 147.694335938 561.864257812 168.879882812 580.69140625 193.51953125 592.302734375 c 4
 231.814453125 610.348632812 276.04296875 610.516601562 318.159179688 606.219726562 c 4
 360.275390625 601.922851562 402.27734375 593.508789062 444.55859375 595.649414062 c 4
 484.416992188 597.666992188 523.758789062 609.235351562 558.362304688 629.112304688 c 1028
335 570 m 4
 314.89453125 508.979492188 264.884765625 360.568359375 240.380859375 301.17578125 c 4
 197.732421875 197.8046875 148.508789062 97.146484375 93.1044921875 0.0107421875 c 1028
201.887695312 316.234375 m 4
 224.278320312 300.669921875 250.248046875 290.284179688 277.19921875 286.118164062 c 4
 317.204101562 279.932617188 359.234375 287.736328125 394.350585938 307.868164062 c 1028
EndSplineSet
EndChar

StartChar: G
Encoding: 71 71 7
Width: 480
VWidth: 0
Flags: HW
LayerCount: 2
Fore
SplineSet
527.318359375 609.251953125 m 4
 481.536132812 629.84765625 428.560546875 634.00390625 380.125976562 620.801757812 c 4
 342.166015625 610.454101562 307.493164062 589.924804688 277.38671875 564.592773438 c 4
 247.28125 539.260742188 221.509765625 509.172851562 197.668945312 477.874023438 c 4
 170.245117188 441.870117188 145.029296875 403.787109375 127.54296875 362.043945312 c 4
 110.055664062 320.299804688 100.516601562 274.568359375 105.223632812 229.555664062 c 4
 109.108398438 192.396484375 122.967773438 155.974609375 146.791992188 127.1953125 c 4
 170.6171875 98.416015625 204.638671875 77.6982421875 241.592773438 72.1904296875 c 4
 272.258789062 67.6201171875 304.029296875 73.509765625 332.189453125 86.4853515625 c 4
 360.349609375 99.4599609375 385.0234375 119.293945312 405.776367188 142.330078125 c 4
 437.951171875 178.044921875 461.094726562 221.833007812 472.481445312 268.53515625 c 5
 451.995117188 180.080078125 424.959960938 93.1416015625 391.670898438 8.66796875 c 4
 373.256835938 -38.060546875 352.71875 -84.4140625 323.526367188 -125.284179688 c 4
 294.333984375 -166.154296875 255.775390625 -201.553710938 209.123046875 -220.161132812 c 4
 155.940429688 -241.372070312 93.8203125 -238.951171875 42.4501953125 -213.6640625 c 1028
EndSplineSet
EndChar

StartChar: H
Encoding: 72 72 8
Width: 480
VWidth: 0
Flags: HW
LayerCount: 2
Fore
SplineSet
222.428710938 620.962890625 m 0
 208.439453125 561.079101562 190.38671875 502.145507812 168.435546875 444.701171875 c 0
 136.006835938 359.8359375 95.158203125 278.404296875 62.0380859375 193.806640625 c 0
 36.84375 129.454101562 16.1572265625 63.3388671875 0.1796875 -3.896484375 c 1024
490.805664062 617.787109375 m 0
 475.150390625 549.3359375 454.9765625 481.91796875 430.4609375 416.118164062 c 0
 410.505859375 362.559570312 387.693359375 310.111328125 367.01953125 256.825195312 c 0
 344.8203125 199.608398438 325.1015625 141.466796875 304.484375 83.66015625 c 0
 300.135742188 71.4658203125 295.711914062 59.1396484375 294.3671875 46.263671875 c 0
 293.022460938 33.38671875 295.051757812 19.693359375 302.624023438 9.1923828125 c 0
 309.915039062 -0.9169921875 321.744140625 -7.142578125 333.986328125 -9.4892578125 c 0
 346.227539062 -11.8359375 358.904296875 -10.6142578125 371.108398438 -8.076171875 c 0
 395.65234375 -2.9716796875 418.795898438 7.326171875 441.23046875 18.5146484375 c 0
 454.323242188 25.0439453125 467.251953125 31.9013671875 480 39.078125 c 1024
44.5693359375 319.25390625 m 0
 58.1708984375 306.158203125 76.537109375 298.123046875 95.38671875 297.022460938 c 0
 113.610351562 295.958007812 131.533203125 301.119140625 149.37890625 304.961914062 c 0
 174.791992188 310.43359375 200.6953125 313.2890625 226.59765625 315.482421875 c 0
 264.97265625 318.731445312 304.127929688 320.490234375 341.53125 311.313476562 c 0
 356.365234375 307.674804688 370.78125 302.334960938 384.408203125 295.434570312 c 1024
EndSplineSet
EndChar

StartChar: I
Encoding: 73 73 9
Width: 480
VWidth: 0
Flags: HW
LayerCount: 2
Fore
SplineSet
255.91796875 588.916015625 m 4
 272.694335938 593.375976562 289.716796875 596.911132812 306.881835938 599.5 c 4
 334.852539062 603.71875 363.1484375 605.419921875 391.16796875 609.30078125 c 4
 411.359375 612.09765625 431.395507812 616.026367188 451.1484375 621.061523438 c 1028
361.473632812 605.688476562 m 4
 348.870117188 555.63671875 335.811523438 505.69921875 322.30078125 455.883789062 c 4
 299.275390625 370.98828125 274.93359375 286.44140625 248.564453125 202.524414062 c 4
 227.8203125 136.51171875 205.823242188 70.8916015625 182.588867188 5.7138671875 c 1028
110.474609375 -15.966796875 m 4
 117.002929688 -11.4189453125 123.951171875 -7.4765625 131.203125 -4.2060546875 c 4
 147.272460938 3.0400390625 165.033203125 6.9599609375 182.608398438 5.59375 c 4
 195.1484375 4.6201171875 207.310546875 1.015625 219.458984375 -2.24609375 c 4
 241.200195312 -8.0830078125 263.333984375 -12.89453125 285.809570312 -14.1533203125 c 4
 301.356445312 -15.0244140625 316.999023438 -14.1845703125 332.36328125 -11.654296875 c 1028
EndSplineSet
EndChar

StartChar: J
Encoding: 74 74 10
Width: 480
VWidth: 0
Flags: HW
LayerCount: 2
Fore
SplineSet
221.905273438 478.206054688 m 4
 245.196289062 535.069335938 291.298828125 582.208984375 347.629882812 606.758789062 c 4
 388.796875 624.69921875 435.079101562 630.71484375 479.46484375 623.893554688 c 5
 447.112304688 527.755859375 414.799804688 431.60546875 382.524414062 335.442382812 c 4
 358.90234375 265.057617188 335.286132812 194.622070312 315.653320312 123.022460938 c 4
 299.030273438 62.404296875 284.99609375 0.259765625 255.411132812 -55.19921875 c 4
 237.411132812 -88.94140625 213.666992188 -119.859375 184.159179688 -144.1875 c 4
 161.440429688 -162.91796875 134.446289062 -177.939453125 105.114257812 -180.500976562 c 4
 90.4482421875 -181.782226562 75.4052734375 -179.850585938 61.865234375 -174.0703125 c 4
 48.326171875 -168.290039062 36.3564453125 -158.5703125 28.65625 -146.022460938 c 4
 20.9716796875 -133.499023438 17.724609375 -118.493164062 18.4443359375 -103.817382812 c 4
 19.1630859375 -89.1416015625 23.7255859375 -74.7939453125 30.63671875 -61.8271484375 c 4
 44.4599609375 -35.8935546875 67.0810546875 -15.8876953125 90.0107421875 2.4931640625 c 4
 116.483398438 23.712890625 144.241210938 43.7099609375 174.954101562 58.1259765625 c 4
 188.771484375 64.611328125 203.331054688 69.9853515625 218.5234375 71.455078125 c 4
 233.715820312 72.9248046875 249.68359375 70.212890625 262.315429688 61.64453125 c 4
 271.0859375 55.6953125 277.850585938 47.263671875 284.032226562 38.654296875 c 4
 290.213867188 30.0458984375 295.999023438 21.072265625 303.387695312 13.474609375 c 4
 313.334960938 3.2451171875 326.051757812 -4.224609375 339.76953125 -8.15234375 c 4
 353.487304688 -12.080078125 368.171875 -12.4794921875 382.131835938 -9.529296875 c 4
 401.19140625 -5.501953125 418.372070312 4.4794921875 435.29296875 14.1328125 c 4
 450.115234375 22.58984375 465.018554688 30.9052734375 480 39.078125 c 1028
EndSplineSet
EndChar

StartChar: K
Encoding: 75 75 11
Width: 480
VWidth: 0
Flags: HW
LayerCount: 2
Back
SplineSet
272.72265625 621.947265625 m 0
 241.370117188 503.715820312 204.068359375 387.065429688 161.005859375 272.583984375 c 0
 125.879882812 179.203125 86.9228515625 87.2666015625 44.263671875 -2.91796875 c 1024
488.125976562 608.609375 m 0
 470.237304688 532.6953125 430.065429688 462.180664062 373.896484375 408.102539062 c 0
 318.162109375 354.443359375 246.875976562 317.1484375 171.034179688 301.969726562 c 1
 194.55859375 311.9765625 221.856445312 312.767578125 245.919921875 304.140625 c 0
 269.983398438 295.514648438 290.568359375 277.5546875 302.388671875 254.876953125 c 0
 310.700195312 238.930664062 314.702148438 221.021484375 316.287109375 203.107421875 c 0
 317.874023438 185.193359375 317.124023438 167.1640625 316.411132812 149.193359375 c 0
 315.697265625 131.223632812 315.022460938 113.186523438 316.754882812 95.2861328125 c 0
 318.48828125 77.3857421875 322.713867188 59.513671875 331.286132812 43.7060546875 c 0
 339.998046875 27.6396484375 351 9.9999999998 368.891601562 4.7373046875 c 0
 412.798736525 -8.1776863235 458 30.6669921875 480 39.6669921875 c 1024
EndSplineSet
Fore
SplineSet
276.346679688 630.129882812 m 0
 244.479492188 509.96875 206.565429688 391.413085938 162.795898438 275.0625 c 0
 127.09375 180.157226562 87.4970703125 86.71875 44.1396484375 -4.9375 c 1024
495.284179688 616.57421875 m 0
 477.099609375 539.419921875 436.268554688 467.75390625 379.1796875 412.793945312 c 0
 322.530273438 358.256835938 250.075195312 320.352539062 172.989257812 304.927734375 c 1
 197.017578125 314.241210938 224.400390625 314.590820312 248.658203125 305.895507812 c 0
 272.916992188 297.19921875 293.84765625 279.529296875 306.499023438 257.06640625 c 0
 315.40625 241.252929688 320.224609375 223.361328125 322.241210938 205.321289062 c 0
 324.256835938 187.28125 323.546875 169.038085938 321.92578125 150.958984375 c 0
 318.685546875 114.799804688 311.81640625 78.5244140625 315.870117188 42.447265625 c 0
 317.225585938 30.390625 319.850585938 18.32421875 325.357421875 7.515625 c 0
 330.865234375 -3.29296875 339.469726562 -12.8125 350.520507812 -17.8046875 c 0
 363.751953125 -23.7822265625 379.3125 -22.7685546875 393.03515625 -18.0263671875 c 0
 406.756835938 -13.2841796875 418.995117188 -5.10546875 430.916015625 3.185546875 c 0
 447.557617188 14.759765625 463.924804688 26.728515625 480 39.078125 c 1024
EndSplineSet
EndChar

StartChar: L
Encoding: 76 76 12
Width: 480
VWidth: 0
Flags: HW
LayerCount: 2
Fore
SplineSet
364.561523438 630.499023438 m 4
 314.168945312 578.46484375 274.588867188 516.005859375 249.05078125 448.220703125 c 4
 217.833984375 365.362304688 207.708007812 275.815429688 177.413085938 192.615234375 c 4
 146.798828125 108.537109375 95.5283203125 32.06640625 29.3759765625 -28.1845703125 c 5
 41.0283203125 -13.3681640625 58.314453125 -3.09765625 76.8984375 0.0517578125 c 4
 97.0322265625 3.4638671875 117.705078125 -1.2734375 136.893554688 -8.259765625 c 4
 156.081054688 -15.2451171875 174.428710938 -24.4912109375 193.91015625 -30.61328125 c 4
 233.57421875 -43.078125 276.62890625 -42.0380859375 317.170898438 -32.8193359375 c 4
 357.712890625 -23.6005859375 396.051757812 -6.5 432.887695312 12.7822265625 c 4
 448.823242188 21.125 464.53515625 29.8935546875 480 39.078125 c 1028
EndSplineSet
EndChar

StartChar: M
Encoding: 77 77 13
Width: 480
VWidth: 0
Flags: HW
LayerCount: 2
Fore
SplineSet
31.3115234375 7.212890625 m 4
 49.431640625 116.837890625 74.16015625 225.370117188 105.319335938 332.024414062 c 4
 129.772460938 415.7265625 158.279296875 498.502929688 196.443359375 576.909179688 c 4
 206.650390625 597.87890625 218.083007812 619.184570312 236.49609375 633.498046875 c 4
 245.703125 640.655273438 256.583984375 645.865234375 268.133789062 647.471679688 c 4
 279.68359375 649.078125 291.90234375 646.91015625 301.654296875 640.515625 c 4
 310.546875 634.684570312 317.018554688 625.659179688 321.193359375 615.877929688 c 4
 325.3671875 606.096679688 327.393554688 595.537109375 328.7890625 584.994140625 c 4
 334.150390625 544.500976562 330.583007812 503.354492188 325.000976562 462.891601562 c 4
 318.120117188 413.01171875 308.185546875 363.552734375 295.2734375 314.884765625 c 5
 302.740234375 341.0234375 310.265625 367.146484375 317.84765625 393.252929688 c 4
 330.635742188 437.283203125 343.696289062 481.544921875 364.297851562 522.505859375 c 4
 384.900390625 563.466796875 413.669921875 601.358398438 452.28125 626.083984375 c 4
 461.088867188 631.723632812 470.45703125 636.688476562 480.567382812 639.362304688 c 4
 490.678710938 642.036132812 501.62890625 642.306640625 511.453125 638.71875 c 4
 521.084960938 635.202148438 529.2109375 628.094726562 534.745117188 619.462890625 c 4
 540.279296875 610.830078125 543.315429688 600.740234375 544.376953125 590.541015625 c 4
 546.498046875 570.143554688 540.95703125 549.807617188 535.346679688 530.08203125 c 4
 512.021484375 448.073242188 486.547851562 366.649414062 457.545898438 286.471679688 c 4
 438.280273438 233.208007812 417.20703125 179.298828125 415.131835938 122.696289062 c 4
 413.571289062 80.1240234375 423.116210938 37.1923828125 442.567382812 -0.7080078125 c 1028
EndSplineSet
EndChar

StartChar: N
Encoding: 78 78 14
Width: 480
VWidth: 0
Flags: HW
LayerCount: 2
Fore
SplineSet
72.197265625 0.4921875 m 4
 88.421875 49 104.973632812 97.3984375 121.850585938 145.682617188 c 4
 163.625976562 265.201171875 207.463867188 384.189453125 260.9296875 498.956054688 c 4
 281.864257812 543.893554688 304.259765625 588.150390625 328.0703125 631.6328125 c 5
 321.3828125 601.66796875 317.1015625 571.166015625 315.282226562 540.517578125 c 4
 312.166992188 488.05078125 316.259765625 435.466796875 318.732421875 382.965820312 c 4
 321.50390625 324.1484375 322.2421875 265.250976562 324.873046875 206.426757812 c 4
 327.825195312 140.448242188 333.158203125 74.5771484375 340.859375 8.9833984375 c 5
 356.170898438 56.3740234375 372.159179688 103.544921875 388.817382812 150.478515625 c 4
 422.487304688 245.338867188 458.885742188 339.203125 494.325195312 433.416015625 c 4
 519.313476562 499.844726562 543.826171875 566.452148438 567.861328125 633.231445312 c 1028
EndSplineSet
EndChar

StartChar: O
Encoding: 79 79 15
Width: 480
VWidth: 0
Flags: HW
LayerCount: 2
Fore
SplineSet
362.815429688 626.9140625 m 4
 324.37890625 626.200195312 286.188476562 615.015625 253.440429688 594.8828125 c 4
 211.971679688 569.388671875 180.108398438 530.4296875 156.270507812 487.98828125 c 4
 132.432617188 445.546875 116.029296875 399.413085938 99.9248046875 353.4765625 c 4
 76.89453125 287.783203125 53.9248046875 219.836914062 58.1279296875 150.3515625 c 4
 59.8603515625 121.708007812 66.3544921875 93.0966796875 79.572265625 67.6259765625 c 4
 92.791015625 42.1552734375 112.993164062 19.939453125 138.401367188 6.6015625 c 4
 163.69921875 -6.6796875 193.381835938 -10.7158203125 221.673828125 -6.728515625 c 4
 249.966796875 -2.740234375 276.875 9.0126953125 300.315429688 25.3515625 c 4
 359.840820312 66.841796875 395.005859375 135.022460938 419.065429688 203.4765625 c 4
 448.643554688 287.629882812 464.983398438 376.8984375 462.034179688 466.049804688 c 4
 461.610351562 478.84375 460.774414062 491.740234375 457.321289062 504.067382812 c 4
 453.868164062 516.393554688 447.600585938 528.23046875 437.815429688 536.484375 c 4
 430.823242188 542.3828125 422.166992188 546.287109375 413.1171875 547.624023438 c 4
 404.067382812 548.9609375 394.65234375 547.725585938 386.252929688 544.1015625 c 1028
EndSplineSet
EndChar

StartChar: P
Encoding: 80 80 16
Width: 480
VWidth: 0
Flags: HW
LayerCount: 2
Fore
SplineSet
296.581054688 479.580078125 m 5
 87.0234375 1.5771484375 l 1029
158.391601562 536.201171875 m 4
 170.859375 544.916992188 182.80859375 554.55078125 193.913085938 564.970703125 c 4
 207.549804688 577.684570312 220.083007812 591.642578125 234.629882812 603.307617188 c 4
 257.29296875 621.4609375 284.502929688 633.584960938 312.946289062 638.565429688 c 4
 341.388671875 643.545898438 371.06640625 641.3828125 398.600585938 632.6015625 c 4
 453.603515625 614.97265625 499.060546875 570.279296875 519.776367188 515.885742188 c 4
 538.868164062 465.752929688 537.309570312 407.821289062 514.7109375 359.194335938 c 4
 498.80078125 325.051757812 472.890625 295.692382812 441.0703125 275.901367188 c 4
 409.185546875 256.110351562 371.5859375 245.88671875 334.24609375 246.870117188 c 1028
EndSplineSet
EndChar

StartChar: Q
Encoding: 81 81 17
Width: 480
VWidth: 0
Flags: HW
LayerCount: 2
Fore
SplineSet
343.071289062 626.955078125 m 0
 304.635742188 626.241210938 266.4453125 615.056640625 233.696289062 594.923828125 c 0
 192.227539062 569.4296875 160.364257812 530.470703125 136.526367188 488.029296875 c 0
 112.688476562 445.587890625 96.28515625 399.454101562 80.1806640625 353.517578125 c 0
 57.150390625 287.82421875 34.1806640625 219.877929688 38.3837890625 150.392578125 c 0
 40.1162109375 121.749023438 46.6103515625 93.1376953125 59.828125 67.6669921875 c 0
 73.046875 42.1962890625 93.2490234375 19.98046875 118.657226562 6.642578125 c 0
 143.955078125 -6.638671875 173.637695312 -10.6748046875 201.9296875 -6.6865234375 c 0
 230.22265625 -2.69921875 257.130859375 9.0537109375 280.571289062 25.392578125 c 0
 340.096679688 66.8828125 375.26171875 135.063476562 399.321289062 203.517578125 c 0
 428.899414062 287.670898438 445.240234375 376.939453125 442.290039062 466.090820312 c 0
 441.866210938 478.884765625 441.030273438 491.78125 437.577148438 504.108398438 c 0
 434.124023438 516.434570312 427.856445312 528.271484375 418.071289062 536.525390625 c 0
 411.079101562 542.423828125 402.422851562 546.328125 393.373046875 547.665039062 c 0
 384.323242188 549.000976562 374.908203125 547.766601562 366.508789062 544.142578125 c 1024
119.614257812 103.19140625 m 0
 126.650390625 99.212890625 134.497070312 96.673828125 142.530273438 95.77734375 c 0
 150.778320312 94.85546875 159.124023438 95.650390625 167.41015625 95.1796875 c 0
 187.358398438 94.0478515625 206.265625 85.61328125 223.077148438 74.81640625 c 0
 239.889648438 64.0205078125 255.010742188 50.8291015625 270.98828125 38.83203125 c 0
 288.749023438 25.498046875 307.958007812 13.4609375 329.370117188 7.56640625 c 0
 351.59765625 1.4482421875 375.26953125 2.24609375 397.927734375 6.5029296875 c 0
 427.034179688 11.970703125 455.06640625 23.0966796875 480 39.078125 c 1024
EndSplineSet
EndChar

StartChar: R
Encoding: 82 82 18
Width: 480
VWidth: 0
Flags: HW
LayerCount: 2
Fore
SplineSet
222.102539062 462.311523438 m 5
 12.544921875 6.58984375 l 1029
130.25390625 571.6875 m 0
 164.345703125 604.716796875 207.919921875 627.653320312 254.287109375 636.958984375 c 0
 282.794921875 642.661132812 312.407226562 643.250976562 340.78515625 637.090820312 c 0
 369.1640625 630.930664062 396.243164062 617.823242188 417.73828125 598.163085938 c 0
 439.751953125 578.044921875 455.532226562 551.306640625 463.325195312 522.40625 c 0
 471.118164062 493.505859375 470.922851562 462.57421875 463.520507812 433.608398438 c 0
 455.921875 403.986328125 440.856445312 376.397460938 420.205078125 354.049804688 c 0
 389.5546875 320.955078125 346.6953125 299.984375 302.08203125 294.544921875 c 0
 285.521484375 292.513671875 268.703125 292.513671875 252.079101562 294.676757812 c 1
 261.884765625 291.399414062 271.169921875 286.484375 279.287109375 280.127929688 c 0
 294.873046875 268.069335938 306.23828125 251.227539062 314.419921875 233.271484375 c 0
 322.537109375 215.249023438 327.66796875 196.047851562 332.537109375 176.846679688 c 0
 346.955078125 119.701171875 359.357421875 62.03125 369.552734375 3.96875 c 0
 393.321289062 3.05078125 417.188135374 6.99908447381 439.493164062 15.37109375 c 0
 455.208007812 21.26953125 466.55859375 28.9853515625 480 39.078125 c 1024
EndSplineSet
EndChar

StartChar: S
Encoding: 83 83 19
Width: 480
VWidth: 0
Flags: HW
LayerCount: 2
Fore
SplineSet
495.383789062 588.244140625 m 4
 461.235351562 627.765625 407.586914062 649.561523438 355.55078125 645.0546875 c 4
 326.6875 642.5546875 298.340820312 632.217773438 275.521484375 614.369140625 c 4
 252.702148438 596.520507812 235.654296875 571.05078125 229.25390625 542.795898438 c 4
 222.52734375 513.106445312 227.60546875 481.670898438 238.68359375 453.31640625 c 4
 249.76171875 424.961914062 266.581054688 399.249023438 283.967773438 374.260742188 c 4
 309.080078125 338.169921875 335.7734375 302.866210938 355.263671875 263.454101562 c 4
 374.75390625 224.04296875 386.8046875 179.522460938 380.361328125 136.030273438 c 4
 373.994140625 93.048828125 349.348632812 53.505859375 314.956054688 26.953125 c 4
 278.852539062 -0.921875 231.383789062 -14.701171875 186.404296875 -7.1328125 c 4
 157.408203125 -2.2548828125 129.931640625 11.314453125 108.431640625 31.3720703125 c 4
 86.9326171875 51.4296875 71.4921875 77.900390625 64.6162109375 106.48828125 c 1028
EndSplineSet
EndChar

StartChar: T
Encoding: 84 84 20
Width: 480
VWidth: 0
Flags: HW
LayerCount: 2
Fore
SplineSet
153.583984375 591.198242188 m 4
 167.66015625 601.163085938 183.33984375 608.858398438 199.833984375 613.8984375 c 4
 227.409179688 622.323242188 256.6484375 623.239257812 285.478515625 623.666992188 c 4
 381.216796875 625.087890625 477.022460938 621.845703125 572.444335938 613.955078125 c 1028
405.7578125 620.840820312 m 4
 371.13671875 530.172851562 336.85546875 439.374023438 302.916015625 348.44921875 c 4
 259.446289062 231.994140625 216.536132812 115.331054688 174.186523438 -1.53515625 c 1028
EndSplineSet
EndChar

StartChar: U
Encoding: 85 85 21
Width: 480
VWidth: 0
Flags: HW
LayerCount: 2
Fore
SplineSet
226.020507812 636.120117188 m 4
 213.278320312 596.272460938 200.608398438 556.401367188 188.010742188 516.5078125 c 4
 152.603515625 404.377929688 117.713867188 291.91015625 73.3955078125 182.995117188 c 4
 65.6669921875 164.000976562 57.623046875 145.02734375 52.7470703125 125.109375 c 4
 47.87109375 105.192382812 46.2724609375 84.068359375 51.5205078125 64.2451171875 c 4
 55.8779296875 47.787109375 64.91015625 32.6640625 76.9677734375 20.6435546875 c 4
 89.0244140625 8.6240234375 104.049804688 -0.310546875 120.208007812 -5.673828125 c 4
 152.524414062 -16.400390625 188.657226562 -12.568359375 219.858398438 1.0654296875 c 4
 251.060546875 14.69921875 277.602539062 37.572265625 299.158203125 63.9306640625 c 4
 320.713867188 90.2890625 337.57421875 120.145507812 353.032226562 150.484375 c 4
 389.032226562 221.140625 417.974609375 295.170898438 444.760742188 369.80859375 c 4
 475.903320312 456.584960938 504.217773438 544.375976562 529.645507812 632.995117188 c 1028
394.661132812 242.194335938 m 4
 389.75 230.982421875 385.126953125 219.64453125 380.798828125 208.1953125 c 4
 363.094726562 161.357421875 350.3359375 112.615234375 343.442382812 63.01953125 c 4
 341.516601562 49.1630859375 340.061523438 34.9423828125 343.076171875 21.28125 c 4
 344.583007812 14.4501953125 347.223632812 7.82421875 351.2421875 2.09765625 c 4
 355.259765625 -3.6279296875 360.69140625 -8.4296875 367.080078125 -11.2783203125 c 4
 372.600585938 -13.740234375 378.73046875 -14.70703125 384.76953125 -14.45703125 c 4
 390.80859375 -14.20703125 396.762695312 -12.765625 402.405273438 -10.59765625 c 4
 413.688476562 -6.2607421875 423.631835938 0.884765625 433.52734375 7.828125 c 4
 448.80859375 18.5517578125 464.303710938 28.970703125 480 39.078125 c 1028
EndSplineSet
EndChar

StartChar: V
Encoding: 86 86 22
Width: 480
VWidth: 0
Flags: HW
LayerCount: 2
Fore
SplineSet
185.083007812 618.604492188 m 4
 186.739257812 513.475585938 185.051757812 408.293945312 180.021484375 303.271484375 c 4
 175.202148438 202.626953125 167.314453125 102.127929688 156.374023438 1.9638671875 c 5
 158.209960938 4.697265625 160.071289062 7.4130859375 161.958984375 10.1103515625 c 4
 201.643554688 66.828125 252.166992188 114.930664062 297.943359375 166.85546875 c 4
 364.666015625 242.5390625 421.645507812 326.90234375 465.916015625 417.56640625 c 4
 499.208007812 485.747070312 525.301757812 557.440429688 543.625976562 631.069335938 c 1028
EndSplineSet
EndChar

StartChar: W
Encoding: 87 87 23
Width: 480
VWidth: 0
Flags: HW
LayerCount: 2
Fore
SplineSet
203.544921875 607.012695312 m 4
 138.879882812 494.197265625 96.9697265625 368.401367188 81.0546875 239.344726562 c 4
 71.2373046875 159.728515625 71.2373046875 78.90625 81.0546875 -0.7099609375 c 5
 136.215820312 59.736328125 184.940429688 126.05078125 226.140625 196.75390625 c 4
 300.2578125 323.9453125 349.795898438 465.399414062 371.2265625 611.041015625 c 5
 325.001953125 466.787109375 296.3515625 316.911132812 286.109375 165.779296875 c 4
 282.354492188 110.376953125 281.063476562 54.8076171875 282.241210938 -0.708984375 c 5
 367.760742188 92.4716796875 435.151367188 202.228515625 479.556640625 320.653320312 c 4
 515.783203125 417.266601562 536.755859375 519.58203125 541.4609375 622.65625 c 1028
EndSplineSet
EndChar

StartChar: X
Encoding: 88 88 24
Width: 480
VWidth: 0
Flags: HW
LayerCount: 2
Fore
SplineSet
212.653320312 618.732421875 m 4
 217.862304688 581.555664062 222.583007812 544.310546875 226.815429688 507.010742188 c 4
 233.931640625 444.293945312 239.669921875 381.301757812 239.404296875 318.18359375 c 4
 239.1171875 249.9609375 231.819335938 181.700195312 236.256835938 113.62109375 c 4
 237.93359375 87.9013671875 241.40234375 61.857421875 251.9140625 38.3232421875 c 4
 257.169921875 26.556640625 264.180664062 15.5107421875 273.1171875 6.2255859375 c 4
 282.053710938 -3.060546875 292.952148438 -10.556640625 305.076171875 -14.92578125 c 4
 324.711914062 -22.0029296875 346.602539062 -20.576171875 366.677734375 -14.8623046875 c 4
 386.752929688 -9.1474609375 405.395507812 0.623046875 423.916015625 10.2470703125 c 4
 442.568359375 19.939453125 461.262695312 29.55078125 480 39.078125 c 1028
486.458984375 618.732421875 m 4
 443.377929688 569.859375 401.401367188 520.013671875 360.571289062 469.245117188 c 4
 334.34765625 436.639648438 308.573242188 403.620117188 285.16796875 368.936523438 c 4
 268.078125 343.612304688 252.280273438 317.4453125 236.256835938 291.43359375 c 4
 221.9765625 268.251953125 207.485351562 245.145507812 190.989257812 223.485351562 c 4
 166.661132812 191.540039062 138.197265625 163.025390625 110.369140625 134.078125 c 4
 71.509765625 93.6552734375 33.7265625 52.1982421875 -2.9296875 9.7666015625 c 1028
EndSplineSet
EndChar

StartChar: Y
Encoding: 89 89 25
Width: 480
VWidth: 0
Flags: HW
LayerCount: 2
Fore
SplineSet
470.538085938 620.443359375 m 0
 439.678710938 523.997070312 407.416992188 428 373.767578125 332.491210938 c 0
 346.744140625 255.791015625 318.790039062 179.291992188 297.811523438 100.721679688 c 0
 283.489257812 47.08203125 272.212890625 -8.0712890625 246.875976562 -57.47265625 c 0
 229.440429688 -91.4697265625 205.41796875 -122.232421875 175.749023438 -146.307617188 c 0
 153.002929688 -164.764648438 126.081054688 -179.520507812 96.896484375 -182.038085938 c 0
 82.3046875 -183.296875 67.34765625 -181.403320312 53.845703125 -175.727539062 c 0
 40.34375 -170.052734375 28.359375 -160.509765625 20.5185546875 -148.138671875 c 0
 11.6376953125 -134.127929688 8.359375 -116.935546875 10.0146484375 -100.4296875 c 0
 11.6689453125 -83.923828125 18.0595703125 -68.0986328125 27.10546875 -54.1943359375 c 0
 45.1982421875 -26.384765625 73.0546875 -6.650390625 100.354492188 12.2021484375 c 0
 123.971679688 28.51171875 147.838867188 44.76953125 173.99609375 56.5849609375 c 0
 186.668945312 62.3095703125 199.999023438 67.0009765625 213.852539062 68.2041015625 c 0
 227.706054688 69.4072265625 242.203125 66.888671875 253.768554688 59.16796875 c 0
 262.5703125 53.29296875 269.23828125 44.7734375 275.33984375 36.126953125 c 0
 281.442382812 27.4814453125 287.202148438 18.48046875 294.768554688 11.0810546875 c 0
 304.837890625 1.2353515625 317.806640625 -5.3857421875 331.43359375 -8.9423828125 c 0
 345.060546875 -12.5 359.34375 -13.0869140625 373.375976562 -11.8828125 c 0
 413.485351562 -8.4384765625 448 20 480 39.078125 c 1024
193.791015625 616.661132812 m 0
 175.290039062 568.287109375 156.452148438 520.041015625 137.28125 471.927734375 c 0
 119.189453125 426.524414062 100.791992188 381.221679688 84.55078125 335.124023438 c 0
 77.107421875 314 70.0634765625 292.444335938 68.4384765625 270.10546875 c 0
 66.8134765625 247.766601562 71.0888671875 224.283203125 84.458984375 206.314453125 c 0
 94.5302734375 192.77734375 109.326171875 183.063476562 125.426757812 178.015625 c 0
 141.526367188 172.967773438 158.866210938 172.444335938 175.499023438 175.27734375 c 0
 208.764648438 180.943359375 238.40234375 199.44921875 265.275390625 219.859375 c 0
 304.161132812 249.393554688 339.36328125 283.771484375 369.809570312 321.947265625 c 1024
EndSplineSet
EndChar

StartChar: Z
Encoding: 90 90 26
Width: 480
VWidth: 0
Flags: HW
LayerCount: 2
Fore
SplineSet
179.33203125 561.159179688 m 0
 201.981445312 588.059570312 234.970703125 606.025390625 269.85546875 610.458007812 c 0
 312.504882812 615.877929688 354.857421875 601.822265625 396.510742188 591.177734375 c 0
 417.336914062 585.854492188 438.504882812 581.333007812 459.985351562 580.510742188 c 0
 481.46484375 579.688476562 503.393554688 582.704101562 522.837890625 591.870117188 c 0
 536.842773438 598.47265625 549.361328125 608.208007812 559.208984375 620.15625 c 1
 521.405273438 558.783203125 478.06640625 500.822265625 429.888671875 447.20703125 c 0
 379.966796875 391.649414062 325.002929688 340.893554688 271.471679688 288.8046875 c 0
 224.201171875 242.806640625 177.721679688 195.383789062 140.536132812 140.908203125 c 0
 122.305664062 114.201171875 106.373046875 85.888671875 86.484375 60.3935546875 c 0
 71.51171875 41.201171875 54.359375 23.7119140625 35.462890625 8.3671875 c 1
 55.5263671875 13.3515625 76.2177734375 15.8017578125 96.890625 15.640625 c 0
 143.709960938 15.2763671875 189.248046875 1.6748046875 235.100585938 -7.7958984375 c 0
 265.154296875 -14.0029296875 295.76171875 -18.4736328125 326.432617188 -17.494140625 c 0
 381.905273438 -15.7216796875 436.635742188 4.4404296875 480 39.078125 c 1024
EndSplineSet
EndChar

StartChar: bracketleft
Encoding: 91 91 27
Width: 480
VWidth: 0
Flags: HW
LayerCount: 2
Fore
SplineSet
464.391601562 633.940429688 m 4
 428.506835938 630.978515625 392.689453125 627.204101562 356.975585938 622.622070312 c 4
 337.500976562 620.123046875 318.057617188 617.383789062 298.650390625 614.405273438 c 5
 251.6640625 504.153320312 203.802734375 394.274414062 155.071289062 284.782226562 c 4
 112.544921875 189.233398438 40.3564453125 24.9794921875 -3.4892578125 -69.970703125 c 5
 20.66015625 -66.955078125 44.8310546875 -64.115234375 69.021484375 -61.4521484375 c 4
 107.293945312 -57.23828125 145.616210938 -53.46484375 183.975585938 -50.1337890625 c 1028
EndSplineSet
EndChar

StartChar: backslash
Encoding: 92 92 28
Width: 480
VWidth: 0
Flags: HW
LayerCount: 2
Fore
SplineSet
79.2763671875 725.485351562 m 0
 135.708007812 596.122070312 192.594726562 466.889648438 250.000976562 337.984375 c 0
 299.874023438 225.856445312 350.13671875 113.859375 400.723632812 2.05859375 c 1024
EndSplineSet
EndChar

StartChar: bracketright
Encoding: 93 93 29
Width: 480
VWidth: 0
Flags: HW
LayerCount: 2
Fore
SplineSet
307.1484375 607.484375 m 4
 341.553710938 613.53125 376.052734375 619.043945312 410.62890625 624.020507812 c 4
 433.140625 627.260742188 455.684570312 630.274414062 478.256835938 633.05859375 c 5
 431.708984375 523.840820312 384.294921875 414.993164062 336.018554688 306.528320312 c 4
 293.889648438 211.875976562 212.104492188 47.5146484375 168.66796875 -46.544921875 c 5
 134.04296875 -50.5087890625 99.4775390625 -54.9951171875 64.98828125 -60.001953125 c 4
 39.1376953125 -63.7548828125 13.3291015625 -67.7998046875 -12.4296875 -72.13671875 c 1028
307.1484375 607.484375 m 4
 341.553710938 613.53125 376.052734375 619.043945312 410.62890625 624.020507812 c 4
 433.140625 627.260742188 455.684570312 630.274414062 478.256835938 633.05859375 c 5
 431.708984375 523.840820312 384.294921875 414.993164062 336.018554688 306.528320312 c 4
 293.889648438 211.875976562 212.104492188 47.5146484375 168.66796875 -46.544921875 c 5
 134.04296875 -50.5087890625 99.4775390625 -54.9951171875 64.98828125 -60.001953125 c 4
 39.1376953125 -63.7548828125 13.3291015625 -67.7998046875 -12.4296875 -72.13671875 c 1028
EndSplineSet
EndChar

StartChar: underscore
Encoding: 95 95 30
Width: 480
VWidth: 0
Flags: HW
LayerCount: 2
Fore
SplineSet
9.0166015625 -18.73046875 m 4
 84.78125 -11.8525390625 140.650390625 -6.111328125 216.587890625 -1.509765625 c 0
 305.642578125 3.8857421875 381.79296875 7.71484375 470.983398438 9.9736328125 c 1024
EndSplineSet
EndChar

StartChar: grave
Encoding: 96 96 31
Width: 480
VWidth: 0
Flags: HW
LayerCount: 2
Fore
SplineSet
213.404296875 609.951171875 m 0
 229.560546875 588.1328125 225.279296875 589.881835938 243.069335938 569.40625 c 4
 262.157226562 547.454101562 282.178710938 526.274414062 303 506 c 1028
EndSplineSet
EndChar

StartChar: a
Encoding: 97 97 32
Width: 480
VWidth: 0
Flags: HW
LayerCount: 2
Back
SplineSet
288.0078125 385.7421875 m 4
 265.440429688 393.75390625 240.377929688 395.494140625 216.7578125 390.671875 c 4
 191.7734375 385.524414062 168.778320312 373.19921875 150.107421875 356.849609375 c 4
 131.4375 340.536132812 116.938476562 320.344726562 106.102539062 298.775390625 c 4
 84.3525390625 255.599609375 77.064453125 207.6015625 69.03515625 160.547851562 c 4
 63.7333984375 129.444335938 58.0048828125 97.759765625 63.072265625 66.619140625 c 4
 65.60546875 51.03125 70.8671875 35.734375 79.75390625 22.3203125 c 4
 88.640625 8.9072265625 101.268554688 -2.5126953125 116.509765625 -9.36328125 c 4
 135.140625 -17.7373046875 156.53363179 -16.9408776125 177.196289062 -17.048828125 c 4
 230.785557116 -17.3288012608 282.895543031 9.03942998308 317.045898438 51.9736328125 c 1028
  Spiro
    288.008 385.742 {
    264.778 391.649 o
    240.689 393.317 o
    216.758 390.672 o
    192.546 383.258 o
    170.112 371.728 o
    150.107 356.85 o
    132.825 339.355 o
    118.165 319.772 o
    106.103 298.775 o
    88.6239 254.252 o
    77.3712 207.656 o
    69.0352 160.548 o
    64.0111 129.324 o
    61.187 97.868 o
    63.0723 66.6191 o
    66.5437 51.2024 o
    72.0489 36.2885 o
    79.7539 22.3203 o
    89.8347 9.67883 o
    102.195 -1.09461 o
    116.51 -9.36328 o
    135.93 -15.4844 o
    156.477 -17.7394 o
    177.196 -17.0488 o
    229.687 -5.63279 o
    277.464 17.9478 o
    317.046 51.9736 o
    0 0 z
  EndSpiro
402.015625 355.399414062 m 5
 334.5078125 115.631835938 l 6
 332.723506076 109.294512684 330.785310953 103.002098099 328.877317702 96.7009095452 c 4
 326.965001595 90.3854446637 325.205539649 84.024782391 323.507734342 77.6483016452 c 4
 321.815123261 71.2913289611 320.105027777 64.9389233386 318.44921875 58.572265625 c 4
 317.650025573 55.499333105 316.873984451 52.4196170121 316.200626559 49.3166807969 c 4
 315.527771364 46.2160610871 314.960134302 43.0900295632 314.605348686 39.9371413847 c 4
 314.076440169 35.2368679262 314.026644268 30.4637942935 314.755561896 25.7903593794 c 4
 315.246112884 22.6452054891 316.090956227 19.5492997213 317.357421875 16.62890625 c 4
 318.641483325 13.6679379213 320.364462045 10.8926389658 322.497060786 8.47020839806 c 4
 326.773199661 3.61291887772 332.696189909 0.333637843341 338.990234375 -1.1708984375 c 4
 343.745631339 -2.30763449031 348.688882073 -2.51142979223 353.567382812 -2.185546875 c 4
 373.690629589 -0.841317835333 392.849470674 6.67471431012 412 13 c 4
 435.051867715 20.6138704314 457.788927027 29.2006191278 480 39 c 1028
  Spiro
    402.016 355.399 {
    334.508 115.632 ]
    328.877 96.7009 o
    323.508 77.6483 o
    318.449 58.5723 o
    316.201 49.3167 o
    314.605 39.9371 o
    314.756 25.7904 o
    317.357 16.6289 o
    322.497 8.47021 o
    338.99 -1.1709 o
    353.567 -2.18555 o
    412 13 o
    480 39 o
    0 0 z
  EndSpiro
EndSplineSet
Fore
SplineSet
329.946289062 358.521484375 m 0
 312.008789062 371.376953125 290.0703125 378.56640625 268.002929688 378.8203125 c 0
 247.201171875 379.05859375 226.629882812 373.268554688 207.889648438 364.236328125 c 0
 171.102539062 346.504882812 141.100585938 316.465820312 119.290039062 281.940429688 c 0
 97.4794921875 247.4140625 83.4541015625 208.47265625 73.466796875 168.875 c 0
 65.31640625 136.5625 59.7431640625 102.765625 65.7314453125 69.9833984375 c 0
 68.7265625 53.5927734375 74.65234375 37.6328125 84.00390625 23.841796875 c 0
 93.3544921875 10.05078125 106.2109375 -1.5107421875 121.385742188 -8.390625 c 0
 133.9921875 -14.1064453125 148 -16.5166015625 161.830078125 -15.982421875 c 0
 175.66015625 -15.4482421875 189.3125 -12.0146484375 202.020507812 -6.5302734375 c 0
 227.436523438 4.4375 248.723632812 23.31640625 266.814453125 44.2685546875 c 0
 293.741210938 75.453125 314.372070312 111.543945312 332.895507812 148.345703125 c 0
 343.63671875 169.686523438 353.73046875 191.354492188 363.157226562 213.307617188 c 1024
397.321289062 332.703125 m 1
 344.848632812 147.139648438 l 2
 335.140625 112.809570312 328.626953125 77.625 325.67578125 42.0712890625 c 0
 324.887695312 32.5830078125 324.208984375 22.9189453125 326.309570312 13.6318359375 c 0
 327.359375 8.9892578125 329.112304688 4.4755859375 331.754882812 0.515625 c 0
 334.396484375 -3.4443359375 337.951171875 -6.8388671875 342.186523438 -9.0126953125 c 0
 346.435546875 -11.1923828125 351.256835938 -12.0966796875 356.032226562 -12.1708984375 c 0
 360.807617188 -12.24609375 365.560546875 -11.5185546875 370.244140625 -10.5830078125 c 0
 393.114257812 -6.013671875 414.69140625 3.515625 435.469726562 14.10546875 c 0
 450.63671875 21.8349609375 465.495117188 30.16796875 480 39.078125 c 1024
0.26953125 39.0498046875 m 0
 15.4287109375 45.9638671875 30.2451171875 53.62890625 44.6455078125 62.0087890625 c 0
 51.9892578125 66.28125 58.2255859375 69.740234375 65.34375 74.3779296875 c 1028
EndSplineSet
EndChar

StartChar: b
Encoding: 98 98 33
Width: 480
VWidth: 0
Flags: HW
LayerCount: 2
Fore
SplineSet
0 39.078125 m 4
 73.4580078125 92.3505859375 140.413968667 155.011795852 198.022460938 225.12109375 c 0
 272.971679688 316.333984375 333.301757812 421.922851562 357.693359375 537.430664062 c 0
 361.263671875 554.340820312 364.051757812 571.92578125 360.35546875 588.80859375 c 0
 358.506835938 597.25 355.004882812 605.403320312 349.596679688 612.143554688 c 0
 344.188476562 618.883789062 336.813476562 624.153320312 328.48046875 626.44140625 c 0
 317.348632812 629.498046875 305.250976562 627.073242188 294.924804688 621.913085938 c 0
 284.599609375 616.752929688 275.790039062 609.037109375 267.438476562 601.068359375 c 0
 212.240234375 548.3984375 172.096679688 481.2890625 144.717773438 410.076171875 c 0
 117.338867188 338.86328125 102.29296875 263.447265625 92.66796875 187.762695312 c 0
 89.021484375 159.090820312 86.1337890625 130.076171875 89.0888671875 101.325195312 c 0
 92.0439453125 72.5732421875 101.224609375 43.833984375 119.470703125 21.4189453125 c 0
 129.0234375 9.6826171875 141.196289062 -0.2822265625 155.487304688 -5.255859375 c 0
 170.25 -10.39453125 186.561523438 -9.943359375 201.705078125 -6.0703125 c 0
 216.848632812 -2.197265625 230.96484375 4.947265625 244.359375 13.00390625 c 0
 265.841796875 25.92578125 285.978515625 41.48828125 301.94140625 60.818359375 c 0
 317.904296875 80.1494140625 329.568359375 103.4375 332.947265625 128.27734375 c 0
 334.262695312 137.940429688 334.26171875 148.099609375 330.416992188 157.061523438 c 0
 328.494140625 161.541992188 325.610351562 165.649414062 321.829101562 168.727539062 c 0
 318.047851562 171.806640625 313.349609375 173.8203125 308.482421875 174.11328125 c 0
 302.345703125 174.481445312 296.193359375 172.069335938 291.564453125 168.024414062 c 0
 286.934570312 163.979492188 283.780273438 158.3984375 282.1484375 152.471679688 c 0
 278.884765625 140.6171875 281.556640625 127.953125 285.392578125 116.271484375 c 0
 291.874023438 96.537109375 301.78515625 77.7548828125 315.747070312 62.376953125 c 0
 329.709960938 46.998046875 347.857421875 35.1396484375 368.01953125 30.1474609375 c 0
 384.954101562 25.955078125 402.70998803 26.6520841215 420.061523438 28.462890625 c 0
 440.264648438 30.5712890625 460.313476562 34.154296875 479.99609375 39.173828125 c 1024
EndSplineSet
EndChar

StartChar: c
Encoding: 99 99 34
Width: 480
VWidth: 0
Flags: HW
LayerCount: 2
Fore
SplineSet
417.275390625 280.590820312 m 0
 416.991210938 298.029296875 412.0234375 315.369140625 403.030273438 330.3125 c 0
 394.037109375 345.254882812 381.041992188 357.763671875 365.766601562 366.1796875 c 0
 348.021484375 375.956054688 327.415039062 380.126953125 307.176757812 379.190429688 c 0
 286.938476562 378.25390625 267.076171875 372.326171875 249.057617188 363.063476562 c 0
 213.01953125 344.538085938 184.9921875 313.375976562 162.033203125 279.98828125 c 0
 135.701171875 241.694335938 114.594726562 198.451171875 110.22265625 152.184570312 c 0
 108.037109375 129.05078125 110.137695312 105.39453125 117.556640625 83.3740234375 c 0
 124.974609375 61.353515625 137.814453125 41.0185546875 155.3359375 25.755859375 c 0
 180.579101562 3.7666015625 214.307617188 -6.720703125 247.71875 -8.8369140625 c 0
 281.129882812 -10.9521484375 314.537109375 -5.2861328125 347.256835938 1.7998046875 c 0
 392.202148438 11.5341796875 436.55859375 23.990234375 480 39.078125 c 1024
0 39.078125 m 0
 22.689453125 48.4912109375 44.6328125 59.7021484375 65.5576171875 72.5703125 c 0
 82.0419921875 82.708984375 97.8955078125 93.875 112.993164062 105.983398438 c 1024
EndSplineSet
EndChar

StartChar: d
Encoding: 100 100 35
Width: 480
VWidth: 0
Flags: HW
LayerCount: 2
Fore
SplineSet
293.66796875 346.28125 m 0
 271.015625 363.466796875 242.46484375 372.563476562 214.115234375 371.623046875 c 0
 173.47265625 370.247070312 135.361328125 348.630859375 107.044921875 319.2265625 c 0
 78.76171875 289.7890625 59.173828125 253 42.75 215.540039062 c 0
 27.125 179.959960938 13.80078125 142.231445312 14.466796875 103.328125 c 0
 14.80078125 83.8935546875 18.73046875 64.3916015625 27.2265625 46.9033203125 c 0
 35.6875 29.44921875 48.845703125 14.109375 65.50390625 4.2412109375 c 0
 80.52734375 -4.62109375 97.984375 -8.849609375 115.373046875 -9.48828125 c 0
 132.763671875 -10.1259765625 150.154296875 -7.3056640625 166.9765625 -2.841796875 c 0
 215.98046875 10.1484375 261.1875 37.404296875 295.701171875 74.763671875 c 1024
462.802734375 621.423828125 m 1
 295.3671875 73.857421875 l 2
 290.603515625 54.5234375 294.767578125 33.1748046875 306.39453125 17.0966796875 c 0
 317.6875 1.455078125 336.109375 -9.0517578125 355.298828125 -9.689453125 c 0
 372.189453125 -10.259765625 388.377409803 -3.60983629661 403.904296875 3.1328125 c 0
 429.720703125 14.34375 454.748046875 26.625 480 39.078125 c 1024
0 39.078125 m 5
 25.947265625 53.541015625 l 1029
EndSplineSet
EndChar

StartChar: e
Encoding: 101 101 36
Width: 480
VWidth: 0
Flags: HW
LayerCount: 2
Fore
SplineSet
0 39.078125 m 0
 80.97265625 72.8125 161.370798464 106.605181478 242.001953125 141.146484375 c 0
 286.525390625 160.219726562 332.787109375 180.73828125 363.361328125 218.306640625 c 0
 378.6484375 237.08984375 389.431640625 259.998046875 391.455078125 284.131835938 c 0
 393.478515625 308.265625 386.166015625 333.552734375 369.576171875 351.197265625 c 0
 357.3515625 364.19921875 340.62109375 372.60546875 323.087890625 375.940429688 c 0
 305.556640625 379.275390625 287.2734375 377.696289062 270.1484375 372.668945312 c 0
 235.900390625 362.615234375 207.0625 339.490234375 181.39453125 314.686523438 c 0
 142.7734375 277.364257812 108.24609375 233.453125 93.853515625 181.708984375 c 0
 86.658203125 155.836914062 84.734375 128.30859375 89.994140625 101.974609375 c 0
 95.255859375 75.640625 107.89453125 50.5732421875 127.17578125 31.8818359375 c 0
 150.71875 9.060546875 182.958984375 -3.2705078125 215.470703125 -7.5107421875 c 0
 247.984375 -11.7509765625 281.007698545 -8.45335507301 313.419921875 -3.505859375 c 0
 371.54296875 5.3662109375 424.44921875 19.8173828125 480 39.078125 c 1024
EndSplineSet
EndChar

StartChar: f
Encoding: 102 102 37
Width: 480
VWidth: 0
Flags: HW
LayerCount: 2
Fore
SplineSet
0.876953125 38.4814453125 m 4
 32.171875 54.0634765625 62.5537109375 71.4794921875 91.814453125 90.609375 c 4
 204.97265625 164.590820312 299.795898438 263.067382812 390.07421875 363.705078125 c 4
 416.868164062 393.573242188 443.466796875 423.856445312 465.2421875 457.55859375 c 4
 487.018554688 491.26171875 503.943359375 528.725585938 509.606445312 568.44921875 c 4
 510.862304688 577.258789062 511.557617188 586.254882812 510.104492188 595.033203125 c 4
 508.65234375 603.8125 504.885742188 612.426757812 498.330078125 618.443359375 c 4
 492.969726562 623.361328125 485.956054688 626.32421875 478.7421875 627.268554688 c 4
 471.529296875 628.212890625 464.131835938 627.19921875 457.244140625 624.859375 c 4
 443.467773438 620.1796875 432.008789062 610.478515625 421.6484375 600.263671875 c 4
 370.276367188 549.612304688 338.431640625 482.995117188 306.140625 418.481445312 c 4
 266.450195312 339.185546875 224.577148438 260.908203125 188.841796875 179.752929688 c 4
 166.11328125 128.135742188 145.904296875 75.43359375 122.817382812 23.9765625 c 4
 95.2373046875 -37.4951171875 63.5703125 -97.1318359375 28.09375 -154.409179688 c 1028
125.0234375 30.0185546875 m 0
 171.385742188 1.705078125 226.452148438 -12.126953125 280.690429688 -9.083984375 c 0
 315.440429688 -7.134765625 349.4375 1.5078125 383.005859375 10.703125 c 0
 415.497070312 19.6044921875 447.834960938 29.064453125 480 39.078125 c 1024
EndSplineSet
EndChar

StartChar: g
Encoding: 103 103 38
Width: 480
VWidth: 0
Flags: HW
LayerCount: 2
Fore
SplineSet
376.138671875 355.702148438 m 0
 352.5859375 373.223632812 322.603515625 381.81640625 293.420898438 379.399414062 c 0
 259.140625 376.580078125 227.2265625 359.125976562 202.041015625 335.5625 c 0
 176.856445312 311.96484375 157.833984375 282.52734375 141.143554688 252.250976562 c 0
 115.359375 205.358398438 94.3046875 154.036132812 93.73828125 100.430664062 c 0
 93.5390625 82.2041015625 95.8037109375 63.7763671875 102.5 46.8583984375 c 0
 109.163085938 29.94140625 120.555664062 14.568359375 135.98046875 5.068359375 c 0
 155.036132812 -6.6796875 178.521484375 -8.66015625 200.80859375 -7.0146484375 c 0
 267.76953125 -2.0810546875 331.831054688 34.3388671875 370.674804688 89.521484375 c 1024
0 39.078125 m 0
 17.65625 45.724609375 34.9506794576 53.26854783 51.8359375 61.7021484375 c 0
 67.3603515625 69.4560546875 82.5517578125 77.9482421875 97.2763671875 87.1123046875 c 1028
465.349609375 370.370117188 m 0
 439.42578125 280.391601562 409.9296875 191.443359375 376.954101562 103.803710938 c 0
 367.551757812 78.814453125 357.858398438 53.91015625 349.89453125 28.4267578125 c 0
 338.854492188 -6.8955078125 331.176757812 -43.197265625 320.196289062 -78.537109375 c 0
 309.215820312 -113.877929688 294.647460938 -148.696289062 271.528320312 -177.59375 c 0
 244.670898438 -211.162109375 206.477539062 -235.622070312 164.60546875 -245.364257812 c 0
 147.33984375 -249.381835938 129.19140625 -250.930664062 111.90625 -246.99609375 c 0
 94.6220703125 -243.061523438 78.2412109375 -233.1796875 68.9296875 -218.094726562 c 0
 63.7109375 -209.640625 60.8447265625 -199.801757812 60.345703125 -189.87890625 c 0
 59.845703125 -179.95703125 61.6806640625 -169.962890625 65.3330078125 -160.723632812 c 0
 72.6396484375 -142.245117188 87.029296875 -127.138671875 103.776367188 -116.444335938 c 0
 137.270507812 -95.0556640625 178.4140625 -90.7841796875 217.133789062 -81.8349609375 c 0
 287.96875 -65.462890625 353.65625 -32.171875 417.19921875 3.1533203125 c 0
 438.279296875 14.87109375 459.21484375 26.84765625 480 39.078125 c 1024
EndSplineSet
EndChar

StartChar: h
Encoding: 104 104 39
Width: 480
VWidth: 0
Flags: HW
LayerCount: 2
Back
SplineSet
0 39.078125 m 5
 20.19921875 49.33203125 l 1029
EndSplineSet
Fore
SplineSet
237.609375 617.56640625 m 1
 2.2109375 -4.6123046875 l 1
 27.48046875 79.6376953125 64.517578125 160.348632812 111.912109375 234.4453125 c 0
 139.791015625 278.029296875 173.05078125 320.864257812 219.654296875 343.331054688 c 0
 242.95703125 354.565429688 269.275390625 360.216796875 294.9609375 357.146484375 c 0
 320.6484375 354.076171875 345.552734375 341.872070312 362 321.905273438 c 0
 374.990234375 306.134765625 382.330078125 286.138671875 384.533203125 265.825195312 c 0
 386.736328125 245.51171875 383.990234375 224.87109375 378.416015625 205.213867188 c 0
 367.26953125 165.8984375 345.220703125 130.745117188 327.265625 94.0361328125 c 0
 319.201171875 77.55078125 311.8046875 60.126953125 311.404296875 41.7783203125 c 0
 311.205078125 32.6044921875 312.818359375 23.3115234375 316.787109375 15.0380859375 c 0
 320.755859375 6.763671875 327.158203125 -0.4443359375 335.271484375 -4.7314453125 c 0
 344.701171875 -9.71484375 355.900390625 -10.5302734375 366.4453125 -8.927734375 c 0
 376.98828125 -7.32421875 387.038855413 -3.45359004533 396.92578125 0.548828125 c 0
 425.294921875 12.033203125 452.810546875 25.02734375 480 39.078125 c 1024
EndSplineSet
EndChar

StartChar: i
Encoding: 105 105 40
Width: 477
VWidth: 0
Flags: HW
LayerCount: 2
Fore
SplineSet
364.1015625 598.66015625 m 1
 347.745117188 566.90625 l 1025
EndSplineSet
Refer: 113 305 N 1 0 0 1 0 0 2
EndChar

StartChar: j
Encoding: 106 106 41
Width: 480
VWidth: 0
Flags: HW
LayerCount: 2
Fore
SplineSet
420.001953125 600.002929688 m 1
 411.70703125 565.228515625 l 1025
351.2421875 375.2109375 m 0
 330.0546875 321.571289062 307.53515625 268.469726562 283.815429688 215.905273438 c 0
 269.423828125 184.118164062 254.599609375 152.532226562 241.140625 120.341796875 c 0
 205.26171875 34.546875 179.244140625 -55.34375 140.5 -139.86328125 c 0
 125.109375 -173.4296875 107.01953125 -206.99609375 78.63671875 -230.391601562 c 0
 67.443359375 -239.588867188 54.650390625 -247.141601562 40.5595703125 -250.498046875 c 0
 26.5009765625 -253.854492188 11.109375 -252.780273438 -1.5498046875 -245.731445312 c 0
 -10.111328125 -240.999023438 -17.173828125 -233.647460938 -21.970703125 -225.0546875 c 0
 -26.767578125 -216.461914062 -29.2998046875 -206.66015625 -29.666015625 -196.791992188 c 0
 -30.3994140625 -177.088867188 -22.4033203125 -157.720703125 -10.177734375 -142.34765625 c 0
 3.4140625 -125.228515625 21.9697265625 -112.641601562 41.7255859375 -103.41015625 c 0
 61.447265625 -94.1796875 82.4677734375 -88.0712890625 103.388671875 -82.029296875 c 0
 180.743164062 -59.70703125 258.23046875 -37.85546875 334.751953125 -12.8154296875 c 0
 383.623046875 3.1953125 432.061523438 20.482421875 480 39.078125 c 1024
0 39.078125 m 4
 59.626953125 60.517578125 115.481670285 89.4039901329 166.577148438 126.87890625 c 0
 219.54296875 165.725585938 266.666992188 212.521484375 305.883789062 265.213867188 c 1024
EndSplineSet
EndChar

StartChar: k
Encoding: 107 107 42
Width: 480
VWidth: 0
Flags: HW
LayerCount: 2
Fore
SplineSet
277.197265625 620.65625 m 0
 249.821289062 513.932617188 217.436523438 408.493164062 180.185546875 304.802734375 c 0
 142.423828125 199.690429688 99.66015625 96.3759765625 52.0888671875 -4.6767578125 c 1
 77.283203125 57.390625 105.794921875 118.110351562 137.462890625 177.13671875 c 0
 166.341796875 230.963867188 199.834960938 285.461914062 251.872070312 317.453125 c 0
 276.451171875 332.563476562 305.4140625 342.1171875 334.087890625 338.91796875 c 0
 348.424804688 337.318359375 362.478515625 332.501953125 374.384765625 324.356445312 c 0
 386.291015625 316.2109375 395.9765625 304.680664062 401.283203125 291.266601562 c 0
 408.145507812 273.918945312 407.37890625 253.954101562 400.4453125 236.634765625 c 0
 393.51171875 219.315429688 380.685546875 204.635742188 365.185546875 194.25390625 c 0
 346.063476562 181.446289062 322.743164062 175.022460938 299.759765625 176.232421875 c 0
 276.77734375 177.442382812 254.259765625 186.278320312 236.587890625 201.022460938 c 1
 265.556640625 179.7890625 286.84375 148.296875 295.748046875 113.500976562 c 0
 301.635742188 90.490234375 302.25390625 66.310546875 309.060546875 43.5556640625 c 0
 312.462890625 32.177734375 317.467773438 21.14453125 324.952148438 11.9248046875 c 0
 332.4375 2.705078125 342.54296875 -4.62890625 354.048828125 -7.568359375 c 0
 367.151367188 -10.9169921875 381.16015625 -8.4111328125 393.744140625 -3.4580078125 c 0
 406.328125 1.494140625 417.825896972 8.7875967001 429.604492188 15.431640625 c 0
 445.774414062 24.552734375 462.692382812 32.3623046875 480 39.078125 c 1028
0 39.078125 m 0
 20.8525390625 47.25390625 40.5185546875 58.4482421875 58.1953125 72.203125 c 0
 79.6416015625 88.892578125 98.1416015625 108.356445312 112.588867188 131.373046875 c 1024
EndSplineSet
EndChar

StartChar: l
Encoding: 108 108 43
Width: 480
VWidth: 0
Flags: HW
LayerCount: 2
Fore
SplineSet
-0.0185546875 38.474609375 m 4
 58.7333984375 62.6904296875 114.743155658 93.5517696778 166.599609375 130.28125 c 0
 211.23828125 161.8984375 252.83203125 197.888671875 289.903320312 238.11328125 c 0
 366.518554688 321.24609375 424 424.541015625 440.356445312 536.404296875 c 0
 442.82421875 553.28125 444.334960938 570.674804688 440.313476562 587.250976562 c 0
 438.303710938 595.5390625 434.89453125 603.541015625 429.841796875 610.411132812 c 0
 424.7890625 617.28125 418.052734375 622.9921875 410.211914062 626.345703125 c 0
 401.956054688 629.877929688 392.665039062 630.712890625 383.791015625 629.342773438 c 0
 374.916992188 627.97265625 366.44921875 624.45703125 358.844726562 619.682617188 c 0
 343.634765625 610.133789062 332.065429688 595.860351562 321.264648438 581.512695312 c 0
 242.551757812 476.951171875 189.206054688 353.986328125 162.548828125 225.852539062 c 0
 155.119140625 190.142578125 149.70703125 153.467773438 154.047851562 117.251953125 c 0
 158.388671875 81.0361328125 173.432617188 44.9716796875 201.203125 21.3232421875 c 0
 218.40234375 6.67578125 239.772460938 -2.630859375 261.893554688 -7.2138671875 c 0
 304.5 -16.0419921875 348.833984375 -7.7734375 390.506835938 4.73828125 c 0
 421.137695312 13.935546875 451.079101562 25.423828125 480 39.078125 c 1024
EndSplineSet
EndChar

StartChar: m
Encoding: 109 109 44
Width: 480
VWidth: 0
Flags: HW
LayerCount: 2
Back
SplineSet
0 39.078125 m 5
 31.755859375 61.9013671875 l 1029
EndSplineSet
Fore
SplineSet
71.62109375 358.610351562 m 4
 76.904296875 347.233398438 81.1796875 335.388671875 84.37890625 323.259765625 c 4
 88.2412109375 308.6171875 90.5341796875 293.561523438 91.205078125 278.432617188 c 1028
-13.236328125 -2.568359375 m 4
 3.64453125 34.763671875 19.134765625 72.724609375 33.1923828125 111.208007812 c 4
 46.4462890625 147.4921875 58.421875 184.228515625 70.6513671875 220.87109375 c 4
 78.078125 243.120117188 85.6220703125 265.395507812 95.63671875 286.606445312 c 4
 104.041992188 304.409179688 114.225585938 321.481445312 127.106445312 336.37109375 c 4
 139.986328125 351.260742188 155.645507812 363.943359375 173.568359375 372.090820312 c 4
 188.580078125 378.915039062 205.538085938 382.482421875 221.705078125 379.234375 c 4
 240.771484375 375.403320312 257.40234375 361.96875 266.236328125 344.643554688 c 4
 274.8046875 327.83984375 276.189453125 307.516601562 269.978515625 289.706054688 c 6
 152.424804688 -2.568359375 l 1029
264.52734375 276.973632812 m 4
 275.869140625 303.102539062 292.264648438 327.026367188 312.541992188 347.032226562 c 4
 322.931640625 357.283203125 334.46875 366.599609375 347.692382812 372.77734375 c 4
 360.915039062 378.955078125 375.979492188 381.841796875 390.295898438 379.00390625 c 4
 406.65234375 375.76171875 421.122070312 365.0703125 430.19921875 351.08203125 c 4
 439.275390625 337.09375 443.141601562 320.049804688 442.3984375 303.391601562 c 4
 441.184570312 276.23046875 428.434570312 251.119140625 416.326171875 226.776367188 c 4
 391.658203125 177.182617188 368.567382812 126.811523438 343.512695312 77.4111328125 c 4
 335.41015625 61.4345703125 326.920898438 44.90234375 326.192382812 27.0029296875 c 4
 325.827148438 18.052734375 327.517578125 8.900390625 331.923828125 1.1025390625 c 4
 336.330078125 -6.6953125 343.591796875 -13.03125 352.213867188 -15.4580078125 c 4
 357.98828125 -17.0830078125 364.15625 -16.9384765625 370.043945312 -15.78515625 c 4
 375.930664062 -14.630859375 381.580078125 -12.498046875 387.111328125 -10.1767578125 c 4
 404.94140625 -2.693359375 421.833984375 6.8212890625 438.721679688 16.2412109375 c 4
 452.454101562 23.9013671875 466.213867188 31.513671875 480 39.078125 c 1028
EndSplineSet
EndChar

StartChar: n
Encoding: 110 110 45
Width: 480
VWidth: 0
Flags: HW
LayerCount: 2
Back
SplineSet
0 39.078125 m 0
 15.443359375 46.4072265625 29.9609375 55.6806640625 43.103515625 66.611328125 c 0
 55.498046875 76.9208984375 66.66796875 88.701171875 76.3037109375 101.626953125 c 1024
EndSplineSet
Fore
SplineSet
74.55859375 361.772460938 m 4
 82.7880859375 357.098632812 89.6806640625 350.100585938 94.2275390625 341.799804688 c 4
 99.1220703125 332.865234375 101.259765625 322.606445312 101.560546875 312.423828125 c 4
 102.1328125 293.038085938 96.3095703125 274.094726562 90.38671875 255.626953125 c 4
 62.078125 167.3515625 30.0732421875 80.2607421875 -5.515625 -5.33984375 c 1028
54.5400390625 149.481445312 m 4
 65.2314453125 186.116210938 80.201171875 221.5 99.0478515625 254.684570312 c 4
 122.060546875 295.204101562 151.754882812 333.240234375 191.577148438 357.438476562 c 4
 211.489257812 369.538085938 233.764648438 377.977539062 256.88671875 380.8515625 c 4
 280.0078125 383.7265625 303.97265625 380.916015625 325.333007812 371.611328125 c 4
 353.088867188 359.51953125 376.138671875 335.809570312 384.923828125 306.836914062 c 4
 391.358398438 285.616210938 390.098632812 262.663085938 384.99609375 241.08203125 c 4
 379.89453125 219.501953125 371.099609375 199.001953125 362.4609375 178.578125 c 4
 344.904296875 137.0703125 327.77734375 95.224609375 316.022460938 51.7158203125 c 4
 313.219726562 41.3447265625 310.708984375 30.734375 311.04296875 19.99609375 c 4
 311.209960938 14.626953125 312.098632812 9.2568359375 313.966796875 4.2197265625 c 4
 315.833984375 -0.81640625 318.698242188 -5.5166015625 322.540039062 -9.2705078125 c 4
 327.194335938 -13.8193359375 333.1953125 -16.884765625 339.512695312 -18.447265625 c 4
 345.830078125 -20.0107421875 352.458007812 -20.1103515625 358.903320312 -19.208984375 c 4
 371.793945312 -17.4052734375 383.775390625 -11.724609375 395.485351562 -6.0419921875 c 4
 411.7265625 1.83984375 427.900390625 9.8671875 443.799804688 18.41796875 c 4
 456.037109375 24.9990234375 468.109375 31.888671875 480 39.078125 c 1028
EndSplineSet
EndChar

StartChar: o
Encoding: 111 111 46
Width: 480
VWidth: 0
Flags: HW
LayerCount: 2
Fore
SplineSet
0 39.078125 m 0
 14.2890625 44.908203125 28.078125 51.962890625 41.1669921875 60.140625 c 0
 61.375 72.7666015625 79.904296875 88.0751953125 96.115234375 105.538085938 c 1024
218.077148438 358.760742188 m 0
 152.755859375 312.1171875 108.063476562 237.596679688 97.677734375 158.005859375 c 0
 94.99609375 137.451171875 94.5107421875 116.485351562 98.00390625 96.052734375 c 0
 101.497070312 75.6201171875 109.083984375 55.69921875 121.505859375 39.1044921875 c 0
 133.451171875 23.146484375 149.703125 10.5478515625 167.872070312 2.349609375 c 0
 186.041015625 -5.8486328125 206.080078125 -9.689453125 226.01171875 -9.458984375 c 0
 265.875 -8.998046875 304.501953125 7.708984375 335.608398438 32.642578125 c 0
 375.603515625 64.701171875 404.047851562 110.2421875 418.041015625 159.553710938 c 0
 429.087890625 198.484375 431.28515625 240.586914062 419.453125 279.286132812 c 0
 407.622070312 317.985351562 380.84765625 352.853515625 344.2265625 370.072265625 c 0
 314.513671875 384.041992188 279.219726562 385.728515625 248.359375 374.520507812 c 0
 217.499023438 363.313476562 191.477539062 339.321289062 177.934570312 309.412109375 c 0
 165.806640625 282.627929688 163.672851562 252.215820312 166.634765625 222.962890625 c 0
 169.956054688 190.165039062 179.538085938 157.893554688 195.704101562 129.1640625 c 0
 216.609375 92.0087890625 248.564453125 61.140625 286.483398438 41.6552734375 c 0
 324.40234375 22.1708984375 368.146623799 14.1609101575 410.494140625 19.0849609375 c 0
 434.81640625 21.9130859375 458.024414062 28.2783203125 480 39.078125 c 1028
EndSplineSet
EndChar

StartChar: p
Encoding: 112 112 47
Width: 480
VWidth: 0
Flags: HW
LayerCount: 2
Fore
SplineSet
480 39.078125 m 0
 463.556640625 30.5947265625 446.884765625 22.5546875 430.008789062 14.9697265625 c 0
 407.79296875 4.9853515625 385.194335938 -4.2216796875 361.95703125 -11.5166015625 c 0
 344.684570312 -16.939453125 326.459960938 -21.3310546875 308.59765625 -18.3837890625 c 0
 299.666992188 -16.9091796875 290.962890625 -13.5517578125 283.790039062 -8.0302734375 c 0
 276.6171875 -2.5087890625 271.046875 5.248046875 268.80859375 14.0185546875 c 0
 266.940429688 21.337890625 267.423828125 29.1640625 269.663085938 36.37890625 c 0
 271.903320312 43.59375 275.849609375 50.2138671875 280.715820312 55.9912109375 c 0
 290.450195312 67.5458984375 303.599609375 75.619140625 316.651367188 83.228515625 c 0
 338.307617188 95.853515625 360.420898438 107.799804688 380.896484375 122.260742188 c 0
 401.372070312 136.721679688 420.330078125 153.908203125 433.729492188 175.09375 c 0
 452.584960938 204.905273438 459.362304688 242.53125 450.223632812 276.600585938 c 0
 440.825195312 311.639648438 415.23046875 341.251953125 383.584960938 358.989257812 c 0
 353.211914062 376.013671875 317.018554688 382.6640625 282.688476562 376.84375 c 0
 253.557617188 371.905273438 225.99609375 358.0703125 204.630859375 337.661132812 c 1
 -29.138671875 -226.376953125 l 2
 -30.712890625 -232.83203125 -30.109375 -239.796875 -27.44921875 -245.884765625 c 0
 -26.341796875 -248.416992188 -24.8896484375 -250.798828125 -23.1455078125 -252.942382812 c 1024
0.033203125 39.3349609375 m 0
 25.283203125 51.337890625 49.1015625 66.3486328125 70.8232421875 83.94921875 c 0
 87.869140625 97.7607421875 103.625976562 113.163085938 117.821289062 129.889648438 c 1024
EndSplineSet
EndChar

StartChar: q
Encoding: 113 113 48
Width: 480
VWidth: 0
Flags: HW
LayerCount: 2
Fore
SplineSet
333.138671875 353.159179688 m 0
 310.56640625 370.36328125 281.951171875 379.470703125 253.586914062 378.479492188 c 0
 212.818359375 377.053710938 174.703125 355.2734375 146.48828125 325.811523438 c 0
 118.272460938 296.349609375 98.841796875 259.646484375 82.2021484375 222.400390625 c 0
 65.861328125 185.823242188 51.6416015625 147.103515625 52.076171875 107.044921875 c 0
 52.2939453125 87.015625 56.28515625 66.87890625 65.0751953125 48.8798828125 c 0
 73.8642578125 30.880859375 87.591796875 15.0986328125 104.962890625 5.125 c 0
 120.04296875 -3.533203125 137.471679688 -7.640625 154.848632812 -8.29296875 c 0
 172.225585938 -8.9443359375 189.595703125 -6.244140625 206.453125 -1.9755859375 c 0
 253.041992188 9.8212890625 296.47265625 33.8623046875 331.205078125 67.080078125 c 1024
0 39.078125 m 4
 10.2421875 42.3720703125 20.2421875 46.41796875 29.8935546875 51.1728515625 c 4
 39.7177734375 56.013671875 49.1806640625 61.587890625 58.1767578125 67.8349609375 c 1028
309.044921875 -3.748046875 m 0
 341.766601562 0.015625 374.212890625 6.1787109375 406.03515625 14.67578125 c 0
 431.1328125 21.376953125 455.841796875 29.529296875 480 39.078125 c 1024
464.106445312 369.78125 m 0
 432.97265625 314.676757812 405.09375 257.734375 380.662109375 199.348632812 c 0
 361.888671875 154.485351562 345.16015625 108.796875 328.786132812 63.0029296875 c 0
 296.1953125 -28.146484375 264.983398438 -119.786132812 234.704101562 -211.73046875 c 0
 232.697265625 -217.822265625 230.685546875 -223.940429688 227.829101562 -229.68359375 c 0
 224.973632812 -235.426757812 221.22265625 -240.823242188 216.221679688 -244.83984375 c 0
 210.53125 -249.411132812 203.305664062 -252.03515625 196.0078125 -252.180664062 c 1024
EndSplineSet
EndChar

StartChar: r
Encoding: 114 114 49
Width: 480
VWidth: 0
Flags: HW
LayerCount: 2
Fore
SplineSet
1 39.078125 m 4
 25.828125 49.5947265625 49.126953125 63.712890625 69.939453125 80.853515625 c 4
 96.7978515625 102.97265625 119.462890625 130.102539062 136.846679688 160.2421875 c 4
 166.88671875 212.32421875 180.752929688 272.127929688 206.971679688 326.234375 c 4
 211.090820312 334.736328125 215.609375 343.224609375 222.232421875 349.959960938 c 4
 230.850585938 358.725585938 242.51171875 363.947265625 254.41015625 367.033203125 c 4
 266.309570312 370.120117188 278.611328125 371.251953125 290.776367188 373.013671875 c 4
 307.262695312 375.40234375 323.728515625 378.975585938 340.377929688 378.435546875 c 4
 348.703125 378.165039062 357.043945312 376.846679688 364.840820312 373.915039062 c 4
 372.63671875 370.984375 379.884765625 366.395507812 385.405273438 360.159179688 c 4
 394.502929688 349.8828125 398.344726562 335.803710938 398.73828125 322.084960938 c 4
 399.416992188 298.4375 390.6953125 275.369140625 378.709960938 254.97265625 c 4
 366.725585938 234.576171875 351.493164062 216.315429688 337.577148438 197.18359375 c 4
 318.380859375 170.791992188 301.240234375 141.572265625 297.052734375 109.20703125 c 4
 294.958984375 93.0244140625 296.247070312 76.2685546875 301.971679688 60.9873046875 c 4
 307.6953125 45.70703125 317.997070312 31.9794921875 331.758789062 23.2109375 c 4
 347.076171875 13.451171875 365.883789062 10.234375 384.014648438 11.294921875 c 4
 402.145507812 12.35546875 419.794921875 17.43359375 437.012695312 23.2109375 c 4
 452.271484375 28.3310546875 465.171875 32.822265625 480 39.078125 c 1028
EndSplineSet
EndChar

StartChar: s
Encoding: 115 115 50
Width: 480
VWidth: 0
Flags: HW
LayerCount: 2
Fore
SplineSet
0 39.078125 m 0
 57.0703125 74.66796875 112.887695312 112.266601562 167.314453125 151.78125 c 0
 193.475585938 170.774414062 219.418945312 190.30078125 242.219726562 213.220703125 c 0
 265.01953125 236.140625 284.704101562 262.689453125 296.403320312 292.827148438 c 0
 301.78515625 306.69140625 305.458007812 321.241210938 311.983398438 334.60546875 c 0
 322.392578125 355.923828125 340.0859375 373.602539062 361.413085938 383.993164062 c 1
 345.3125 379.676757812 330.614257812 370.2734375 319.946289062 357.463867188 c 0
 309.278320312 344.654296875 302.690429688 328.498046875 301.357421875 311.881835938 c 0
 299.857421875 293.171875 304.90625 274.385742188 313.02734375 257.462890625 c 0
 321.149414062 240.541015625 332.260742188 225.251953125 343.564453125 210.266601562 c 0
 354.8671875 195.282226562 366.470703125 180.428710938 375.737304688 164.106445312 c 0
 385.00390625 147.783203125 391.920898438 129.768554688 393.00390625 111.030273438 c 0
 394.54296875 84.388671875 383.875976562 57.73828125 366.204101562 37.7412109375 c 0
 348.532226562 17.7451171875 324.290039062 4.1572265625 298.598632812 -3.0615234375 c 0
 257.7578125 -14.537109375 212.657226562 -10.0673828125 174.86328125 9.2021484375 c 1024
480 39.078125 m 4
 455.744140625 27.7822265625 430.692397285 21.0164665775 404.087890625 18.1640625 c 0
 384.286132812 16.041015625 364.223632812 16.3544921875 344.498046875 19.095703125 c 1024
EndSplineSet
EndChar

StartChar: t
Encoding: 116 116 51
Width: 480
VWidth: 0
Flags: HW
LayerCount: 2
Back
SplineSet
350.326171875 623.029296875 m 5
 184.357421875 144.375 l 6
 175.763671875 110.607421875 181.55859375 73.3486328125 199.94921875 43.84375 c 4
 213.5078125 22.0927734375 234.029296875 4.3701171875 258.28125 -3.451171875 c 4
 288.0625 -13.017578125 320.348923975 -7.36682903492 350.79296875 -0.228515625 c 4
 394.599609375 10.04296875 437.826171875 23.2685546875 480 39.078125 c 1028
0 39.078125 m 4
 60.6640625 54.853515625 116.796875 87.9501953125 160.171875 133.533203125 c 4
 173.1640625 147.194335938 185.0234375 161.9296875 195.583984375 177.572265625 c 1028
144.615234375 377.124023438 m 5
 293.494140625 381.65625 l 6
 314.013671875 382.293945312 334.6015625 383.233398438 354.791015625 387.026367188 c 4
 374.978515625 390.852539062 394.666015625 397.365234375 413.0234375 406.663085938 c 1028
EndSplineSet
Fore
SplineSet
350.376953125 623.197265625 m 1
 184.408203125 144.54296875 l 2
 175.313476562 110.842773438 181.110351562 73.3154296875 199.999023438 44.01171875 c 0
 213.82421875 22.529296875 234.478515625 5.51171875 258.331054688 -3.283203125 c 0
 293.077148438 -16.0380859375 331.720703125 -10.90234375 367.6328125 -2.041015625 c 0
 406.41015625 7.5595703125 444.154296875 21.3544921875 480 39.078125 c 1024
0.0498046875 39.24609375 m 0
 38.2607421875 59.18359375 74.40625 83.0498046875 107.787109375 110.338867188 c 0
 144.698242188 140.514648438 178.211914062 174.88671875 207.494140625 212.615234375 c 1024
144.665039062 377.291992188 m 1
 293.543945312 381.82421875 l 2
 314.064453125 382.461914062 334.65234375 383.401367188 354.840820312 387.194335938 c 0
 375.029296875 391.020507812 394.716796875 397.533203125 413.073242188 406.831054688 c 1024
EndSplineSet
EndChar

StartChar: u
Encoding: 117 117 52
Width: 480
VWidth: 0
Flags: HW
LayerCount: 2
Back
SplineSet
0 39.078125 m 0
 9.689453125 42.767578125 18.9326171875 47.6240234375 27.4677734375 53.509765625 c 0
 41.748046875 63.3583984375 53.01953125 75.1083984375 62.3154296875 89.75390625 c 1024
EndSplineSet
Fore
SplineSet
313.96484375 125.765625 m 4
 303.149414062 97.140625 297.268554688 66.658203125 296.66015625 36.064453125 c 4
 296.529296875 29.5283203125 296.641601562 22.953125 297.787109375 16.515625 c 4
 298.932617188 10.0791015625 301.15234375 3.75390625 304.942382812 -1.5732421875 c 4
 309.109375 -7.4306640625 315.083984375 -11.9072265625 321.712890625 -14.689453125 c 4
 328.341796875 -17.47265625 335.604492188 -18.6015625 342.791015625 -18.427734375 c 4
 358.728515625 -18.0439453125 373.786132812 -11.4658203125 388.296875 -4.865234375 c 4
 419.153320312 9.169921875 449.729492188 23.8212890625 480 39.078125 c 1028
123.818359375 375.7734375 m 4
 94.9853515625 298.637695312 64.1552734375 222.247070312 31.37109375 146.706054688 c 4
 23.7177734375 129.071289062 15.90234375 111.307617188 12.1845703125 92.447265625 c 4
 8.4677734375 73.5869140625 9.15234375 53.2490234375 17.9296875 36.1474609375 c 4
 23.3740234375 25.5390625 31.7490234375 16.5634765625 41.509765625 9.7158203125 c 4
 51.2705078125 2.8671875 62.392578125 -1.9052734375 73.8896484375 -5.068359375 c 4
 97.4521484375 -11.55078125 122.534179688 -11.3203125 146.55078125 -6.80078125 c 4
 187.764648438 0.9541015625 226.150390625 21.1884765625 257.904296875 48.5830078125 c 4
 275.837890625 64.0546875 291.791015625 81.8173828125 305.254882812 101.303710938 c 5
 401.016601562 375.501953125 l 1029
EndSplineSet
EndChar

StartChar: v
Encoding: 118 118 53
Width: 480
VWidth: 0
Flags: HW
LayerCount: 2
Back
SplineSet
0.015625 39.3642578125 m 4
 9.47774642362 43.3085538882 18.5768738129 48.1570419645 27 54 c 4
 33.4819892316 58.4964292622 39.5523037865 63.629750131 44.7467463122 69.5670750637 c 4
 48.9532112107 74.3751268993 52.5693637906 79.7023030878 55.4462890625 85.40625 c 1028
  Spiro
    0.015625 39.3643 {
    27 54 o
    44.7467 69.5671 o
    55.4463 85.4062 o
    0 0 z
  EndSpiro
69.87109375 378.639648438 m 4
 83.208984375 363.584960938 93.6708984375 345.989257812 100.526367188 327.080078125 c 4
 112.138671875 295.048828125 113.223632812 259.85546875 107.719726562 226.231445312 c 4
 102.216796875 192.607421875 90.357421875 160.333984375 76.63671875 129.147460938 c 4
 57.3408203125 85.291015625 34.23046875 43.1142578125 7.6533203125 3.2470703125 c 5
 87.541015625 -16.826171875 173.647460938 -11.337890625 250.340820312 18.7158203125 c 4
 293.198242188 35.509765625 333.442382812 60.06640625 365.19921875 93.38671875 c 4
 396.95703125 126.70703125 419.907226562 169.103515625 426.608398438 214.643554688 c 4
 435.057617188 272.057617188 416.359375 332.879882812 377.116210938 375.631835938 c 1028
  Spiro
    69.8711 378.64 {
    82.2119 362.8 o
    92.505 345.488 o
    100.526 327.08 o
    108.77 294.204 o
    110.881 260.169 o
    107.72 226.231 o
    100.274 193.081 o
    89.5585 160.674 o
    76.6367 129.147 o
    56.104 85.9169 o
    33.0378 43.8194 o
    7.65332 3.24707 v
    88.9527 -8.33941 o
    171.17 -3.09895 o
    250.341 18.7158 o
    292.069 38.1123 o
    330.868 62.9781 o
    365.199 93.3867 o
    393.72 129.474 o
    414.783 170.414 o
    426.608 214.644 o
    426.266 272.341 o
    409.271 327.704 o
    377.116 375.632 o
    0 0 z
  EndSpiro
294.599609375 40.2236328125 m 4
 315.352539062 31.888671875 337.241210938 26.388671875 359.46875 23.9228515625 c 4
 400.19921875 19.4052734375 442.034179688 25.2255859375 479.984375 40.689453125 c 1028
  Spiro
    294.6 40.2236 {
    315.68 32.8475 o
    337.406 27.3882 o
    359.469 23.9229 o
    400.345 22.8232 o
    440.994 28.4748 o
    479.984 40.6895 o
    0 0 z
  EndSpiro
EndSplineSet
Fore
SplineSet
0 39.078125 m 0
 21.583984375 50.802734375 42.458984375 63.83203125 62.47265625 78.0712890625 c 0
 91.572265625 98.7734375 118.848632812 122.036132812 143.884765625 147.502929688 c 1024
143.58203125 370.641601562 m 0
 151.168945312 369.391601562 158.260742188 365.331054688 163.180664062 359.420898438 c 0
 166.782226562 355.092773438 169.203125 349.875 170.803710938 344.4765625 c 0
 172.405273438 339.077148438 173.216796875 333.478515625 173.866210938 327.884765625 c 0
 181.178710938 264.923828125 168.241210938 200.530273438 142.375 142.6640625 c 0
 120.88671875 94.59375 90.51953125 50.509765625 53.2626953125 13.30078125 c 1
 113.075195312 -2.3212890625 176.997070312 -1.904296875 236.600585938 14.49609375 c 0
 289.564453125 29.0693359375 339.553710938 56.595703125 376.845703125 96.9296875 c 0
 414.138671875 137.262695312 438.024414062 190.807617188 438.5390625 245.737304688 c 0
 438.866210938 280.7265625 429.5546875 316.202148438 409.479492188 344.861328125 c 0
 402.654296875 354.604492188 394.641601562 363.514648438 385.674804688 371.333007812 c 1024
301.166992188 39.9375 m 0
 319.740234375 31.90234375 339.407256355 26.4015832015 359.453125 23.63671875 c 0
 400.143554688 18.0244140625 442.38671875 22.5712890625 480 39.078125 c 1028
EndSplineSet
EndChar

StartChar: w
Encoding: 119 119 54
Width: 480
VWidth: 0
Flags: HW
LayerCount: 2
Fore
SplineSet
74.1259765625 376.83984375 m 0
 96.2265625 357.868164062 109.150390625 328.521484375 108.34375 299.262695312 c 0
 107.422851562 266.58203125 90.5234375 236.514648438 70.923828125 210.466796875 c 0
 51.2919921875 184.419921875 28.4345703125 160.629882812 12.3564453125 132.21484375 c 0
 2.58203125 114.94140625 -4.587890625 95.80078125 -5.8486328125 75.927734375 c 0
 -7.1103515625 56.0537109375 -2.0302734375 35.3974609375 10.4560546875 19.9697265625 c 0
 21.884765625 5.8203125 38.884765625 -3.1748046875 56.7080078125 -6.455078125 c 0
 74.5 -9.7001953125 93.0380859375 -7.529296875 110.28515625 -2.0908203125 c 0
 154.380859375 11.857421875 189.69921875 46.517578125 213.885742188 86.2158203125 c 0
 238.038085938 125.916015625 252.39453125 170.7109375 266.50390625 215.077148438 c 0
 278.155273438 251.700195312 289.740234375 288.358398438 301.326171875 325.017578125 c 1
 278.760742188 256.885742188 256.624023438 188.638671875 234.91796875 120.276367188 c 0
 229.108398438 101.96484375 223.29296875 83.451171875 222.122070312 64.2802734375 c 0
 220.951171875 45.1083984375 224.880859375 24.9609375 236.815429688 9.98828125 c 0
 246.541015625 -2.2578125 261.108398438 -10.232421875 276.448242188 -13.0263671875 c 0
 291.787109375 -15.853515625 307.791015625 -13.69921875 322.374023438 -8.1728515625 c 0
 351.541015625 2.8798828125 374.2265625 26.5078125 393.286132812 51.365234375 c 0
 447.393554688 121.805664062 481.223632812 210.922851562 473.208007812 299.618164062 c 0
 470.73828125 326.568359375 464.522460938 353.139648438 454.728515625 378.3515625 c 1024
370 27 m 0
 383.411132812 24.337890625 401.16526145 21.010510111 414.825195312 21.7333984375 c 0
 437.430664062 22.9296875 459.760742188 28.8701171875 480 39.078125 c 1024
EndSplineSet
EndChar

StartChar: x
Encoding: 120 120 55
Width: 480
VWidth: 0
Flags: HW
LayerCount: 2
Fore
SplineSet
138.142578125 370.771484375 m 0
 168.822265625 338.610351562 191.293945312 298.568359375 202.811523438 255.473632812 c 0
 205.34765625 245.99609375 207.35546875 236.375976562 209.786132812 226.8984375 c 0
 211.969726562 218.37890625 214.470703125 209.965820312 216.970703125 201.552734375 c 0
 231.764648438 151.358398438 245.465820312 100.560546875 267.268554688 53.0283203125 c 0
 272.411132812 41.8818359375 278.01171875 30.8779296875 285.337890625 21.044921875 c 0
 292.6640625 11.2119140625 301.857421875 2.5859375 312.881835938 -2.703125 c 0
 323.5546875 -7.8505859375 335.600585938 -9.732421875 347.435546875 -9.376953125 c 0
 359.26953125 -9.0576171875 370.965755207 -6.64917042493 382.411132812 -3.5908203125 c 0
 416.154296875 5.42578125 450.90625 19.6611328125 480 39.078125 c 1028
463.951171875 369.138671875 m 0
 374.626953125 335.202148438 293.333007812 280.0390625 228.559570312 209.326171875 c 0
 222.395507812 202.58203125 216.372070312 195.73046875 210.243164062 188.915039062 c 0
 205.41796875 183.51953125 200.487304688 178.159179688 195.485351562 172.905273438 c 0
 140.573242188 115.220703125 73.474609375 69.287109375 0 39.078125 c 1024
EndSplineSet
EndChar

StartChar: y
Encoding: 121 121 56
Width: 480
VWidth: 0
Flags: HW
LayerCount: 2
Back
SplineSet
0 39.078125 m 4
 12.078125 44.091796875 22.4403708934 48.5157458103 34.19921875 54.23828125 c 4
 44.51953125 59.2607421875 54.708984375 64.5537109375 64.7529296875 70.107421875 c 1028
EndSplineSet
Fore
SplineSet
117.15234375 377.272460938 m 4
 83.408203125 280.211914062 48.873046875 183.42578125 13.55078125 86.927734375 c 4
 10.865234375 79.58984375 8.166015625 72.224609375 6.5244140625 64.5849609375 c 4
 4.8828125 56.9453125 4.3251953125 48.9677734375 5.943359375 41.3232421875 c 4
 8.1640625 30.8359375 14.4384765625 21.45703125 22.5302734375 14.42578125 c 4
 30.6220703125 7.39453125 40.4560546875 2.5859375 50.6513671875 -0.7236328125 c 4
 86.7236328125 -12.4306640625 126.283203125 -5.681640625 162.259765625 6.3154296875 c 4
 208.130859375 21.6123046875 252.291015625 46.2412109375 282.096679688 84.318359375 c 4
 307.099609375 116.260742188 320.518554688 155.533203125 332.913085938 194.158203125 c 4
 352.119140625 254.010742188 369.922851562 314.313476562 386.302734375 375 c 1028
340.463867188 220.157226562 m 4
 327.8828125 179.98828125 314.240234375 140.151367188 299.553710938 100.704101562 c 4
 290.23828125 75.6826171875 280.49609375 50.798828125 272.494140625 25.3271484375 c 4
 261.403320312 -9.974609375 253.697265625 -46.2666015625 242.716796875 -81.603515625 c 4
 231.736328125 -116.940429688 217.198242188 -151.76171875 194.127929688 -180.692382812 c 4
 167.31640625 -214.315429688 129.130859375 -238.889648438 87.205078125 -248.463867188 c 4
 69.95703125 -252.40234375 51.841796875 -253.833007812 34.5986328125 -249.870117188 c 4
 17.3564453125 -245.908203125 1.0263671875 -236.12109375 -8.470703125 -221.194335938 c 4
 -13.85546875 -212.731445312 -16.9130859375 -202.852539062 -17.599609375 -192.844726562 c 4
 -18.2861328125 -182.837890625 -16.6318359375 -172.713867188 -13.123046875 -163.31640625 c 4
 -6.1064453125 -144.521484375 8.1591796875 -128.98828125 24.9560546875 -118.018554688 c 4
 58.5498046875 -96.0771484375 100.228515625 -91.9580078125 139.733398438 -84.9345703125 c 4
 206.397460938 -73.08203125 270.959960938 -51.41796875 333.879882812 -26.4033203125 c 4
 383.4921875 -6.677734375 432.258789062 15.17578125 480 39.078125 c 1028
EndSplineSet
EndChar

StartChar: z
Encoding: 122 122 57
Width: 480
VWidth: 0
Flags: HW
LayerCount: 2
Back
SplineSet
0 39.078125 m 4
 24.736328125 45.57421875 48.673828125 55.10546875 71.10546875 67.388671875 c 4
 87.0888671875 76.1416015625 102.307617188 86.2880859375 116.534179688 97.6748046875 c 1028
EndSplineSet
Fore
SplineSet
84.306640625 334.178710938 m 4
 107.495117188 355.2421875 137.48828125 368.693359375 168.639648438 372.001953125 c 4
 206.271484375 375.998046875 243.71484375 365.60546875 281.091796875 359.676757812 c 4
 299.780273438 356.712890625 318.772460938 354.854492188 337.625 356.48046875 c 4
 356.4765625 358.106445312 375.270507812 363.358398438 391.10546875 373.717773438 c 4
 394.926757812 376.217773438 398.561523438 379.00390625 401.969726562 382.044921875 c 5
 396.014648438 373.236328125 389.690429688 364.678710938 383.018554688 356.401367188 c 4
 335.486328125 297.432617188 271.678710938 254.176757812 208.735351562 212.048828125 c 4
 145.791015625 169.921875 81.7431640625 127.159179688 33.4033203125 68.8505859375 c 4
 17.33984375 49.474609375 2.76953125 28.166015625 -17.96875 13.9052734375 c 4
 -21.2001953125 11.68359375 -24.5595703125 9.650390625 -28.0263671875 7.8193359375 c 5
 -17.341796875 9.0322265625 -6.595703125 9.708984375 4.15625 9.845703125 c 4
 84.8828125 10.87109375 163.169921875 -18.37890625 243.783203125 -22.767578125 c 4
 325.421875 -27.2119140625 408.291992188 -5.236328125 477 39.078125 c 1028
EndSplineSet
EndChar

StartChar: braceleft
Encoding: 123 123 58
Width: 480
VWidth: 0
Flags: HW
LayerCount: 2
Fore
SplineSet
377.526367188 652.059570312 m 0
 357.974609375 664.3046875 333.509765625 668.438476562 311.01953125 663.297851562 c 0
 288.530273438 658.157226562 268.291015625 643.8046875 256 624.282226562 c 0
 240.52734375 599.704101562 238.143554688 569.473632812 232.477539062 540.989257812 c 0
 224.00390625 498.388671875 207.154296875 457.241210938 181.532226562 422.16796875 c 0
 162.55078125 396.182617188 138.44140625 373.379882812 109.435546875 359.446289062 c 0
 82.6005859375 346.556640625 51.9931640625 341.646484375 22.4736328125 345.49609375 c 1
 34.6005859375 353.931640625 49.587890625 358.169921875 64.3359375 357.3359375 c 0
 79.0849609375 356.502929688 93.4990234375 350.600585938 104.59765625 340.852539062 c 0
 118.86328125 328.322265625 127.248046875 309.955078125 129.90234375 291.153320312 c 0
 132.555664062 272.352539062 129.829101562 253.109375 124.55078125 234.87109375 c 0
 118.046875 212.393554688 107.76171875 191.234375 98.498046875 169.747070312 c 0
 89.2353515625 148.259765625 80.8798828125 126.01953125 78.5908203125 102.732421875 c 0
 75.93359375 75.7041015625 81.783203125 47.9013671875 95.1064453125 24.2353515625 c 0
 108.430664062 0.5703125 129.166992188 -18.8515625 153.654296875 -30.5986328125 c 1024
EndSplineSet
EndChar

StartChar: bar
Encoding: 124 124 59
Width: 480
VWidth: 0
Flags: HW
LayerCount: 2
Fore
SplineSet
244.90625 797.909179688 m 4
 244.116210938 656.775390625 242.856445312 515.58203125 240.990234375 374.484375 c 4
 239.422851562 251.775390625 237.446289062 129.032226562 235.09375 6.341796875 c 1028
EndSplineSet
EndChar

StartChar: braceright
Encoding: 125 125 60
Width: 480
VWidth: 0
Flags: HW
LayerCount: 2
Fore
SplineSet
102.473632812 -29.3603515625 m 4
 122.025390625 -41.60546875 146.490234375 -45.7392578125 168.98046875 -40.5986328125 c 4
 191.469726562 -35.4580078125 211.708984375 -21.10546875 224 -1.5830078125 c 4
 239.47265625 22.9951171875 241.856445312 53.2255859375 247.522460938 81.7099609375 c 4
 255.99609375 124.310546875 272.845703125 165.458007812 298.467773438 200.53125 c 4
 317.44921875 226.516601562 341.55859375 249.319335938 370.564453125 263.252929688 c 4
 397.399414062 276.142578125 428.006835938 281.052734375 457.526367188 277.203125 c 5
 445.399414062 268.767578125 430.412109375 264.529296875 415.6640625 265.36328125 c 4
 400.915039062 266.196289062 386.500976562 272.098632812 375.40234375 281.846679688 c 4
 361.13671875 294.376953125 352.751953125 312.744140625 350.09765625 331.545898438 c 4
 347.444335938 350.346679688 350.170898438 369.58984375 355.44921875 387.828125 c 4
 361.953125 410.305664062 372.23828125 431.46484375 381.501953125 452.952148438 c 4
 390.764648438 474.439453125 399.120117188 496.6796875 401.409179688 519.966796875 c 4
 404.06640625 546.995117188 398.216796875 574.797851562 384.893554688 598.463867188 c 4
 371.569335938 622.12890625 350.833007812 641.55078125 326.345703125 653.297851562 c 1028
EndSplineSet
EndChar

StartChar: plus
Encoding: 43 43 61
Width: 480
VWidth: 0
Flags: HW
LayerCount: 2
Fore
SplineSet
2.517578125 235.490234375 m 4
 78.302734375 242.37109375 144.150390625 248.072265625 220.127929688 252.725585938 c 0
 309.159179688 258.098632812 378.3203125 261.899414062 467.482421875 264.193359375 c 1024
237.20703125 499.590820312 m 0
 235.064453125 428.749023438 233.181640625 357.97265625 231.494140625 287.130859375 c 0
 229.220703125 191.451171875 227.337890625 95.771484375 225.779296875 0.0927734375 c 1024
EndSplineSet
EndChar

StartChar: comma
Encoding: 44 44 62
Width: 480
VWidth: 0
Flags: HW
LayerCount: 2
Fore
SplineSet
295.4453125 30.9453125 m 4
 279.298828125 9.154296875 262.303710938 -12.0068359375 244.510742188 -32.4765625 c 4
 225.419921875 -54.439453125 205.41015625 -75.6044921875 184.5546875 -95.8984375 c 1028
EndSplineSet
EndChar

StartChar: hyphen
Encoding: 45 45 63
Width: 480
VWidth: 0
Flags: HW
LayerCount: 2
Fore
SplineSet
62.5166015625 240.26953125 m 4
 138.28125 247.147460938 144.150390625 252.888671875 220.087890625 257.490234375 c 4
 309.142578125 262.885742188 328.29296875 266.71484375 417.483398438 268.973632812 c 1028
EndSplineSet
EndChar

StartChar: period
Encoding: 46 46 64
Width: 480
VWidth: 0
Flags: HW
LayerCount: 2
Fore
SplineSet
251.01171875 48.7470703125 m 5
 228.98828125 -3.0947265625 l 1029
EndSplineSet
EndChar

StartChar: slash
Encoding: 47 47 65
Width: 480
VWidth: 0
Flags: HW
LayerCount: 2
Fore
SplineSet
400.723632812 725.485351562 m 4
 344.291992188 596.122070312 287.405273438 466.889648438 229.999023438 337.984375 c 4
 180.125976562 225.856445312 129.86328125 113.859375 79.2763671875 2.05859375 c 1028
EndSplineSet
EndChar

StartChar: zero
Encoding: 48 48 66
Width: 480
VWidth: 0
Flags: HW
LayerCount: 2
Fore
SplineSet
354.196289062 660.6484375 m 0
 291.616210938 656.86328125 230.603515625 630.864257812 184.52734375 588.348632812 c 0
 120.307617188 529.091796875 88.3486328125 443.688476562 57.4130859375 361.966796875 c 0
 34.7861328125 302.194335938 11.236328125 240.94921875 11.18359375 177.037109375 c 0
 11.1572265625 145.080078125 17.236328125 112.80859375 31.576171875 84.2509765625 c 0
 45.916015625 55.6923828125 68.8447265625 31.0283203125 97.6357421875 17.1611328125 c 0
 118.96875 6.88671875 143.04296875 2.72265625 166.684570312 4.0458984375 c 0
 190.326171875 5.369140625 213.530273438 12.0810546875 234.788085938 22.5107421875 c 0
 277.303710938 43.3701171875 311.359375 78.4541015625 339.18359375 116.775390625 c 0
 385.809570312 180.98828125 416.874023438 255.13671875 442.630859375 330.1953125 c 0
 454.061523438 363.506835938 464.596679688 397.463867188 467.837890625 432.533203125 c 0
 471.079101562 467.602539062 466.588867188 504.19140625 449.466796875 534.96875 c 0
 435.252929688 560.518554688 412.524414062 581.234375 385.770507812 593.026367188 c 1024
EndSplineSet
EndChar

StartChar: one
Encoding: 49 49 67
Width: 480
VWidth: 0
Flags: HW
LayerCount: 2
Fore
SplineSet
117.171875 480.983398438 m 0
 158.569335938 504.024414062 200.348632812 526.37890625 242.487304688 548.036132812 c 0
 282.287109375 568.491210938 322.407226562 588.323242188 362.828125 607.5234375 c 1
 328.029296875 513.077148438 293.663085938 418.470703125 259.731445312 323.708984375 c 0
 221.314453125 216.418945312 183.455078125 108.9296875 146.154296875 1.24609375 c 1024
EndSplineSet
EndChar

StartChar: two
Encoding: 50 50 68
Width: 480
VWidth: 0
Flags: HW
LayerCount: 2
Fore
SplineSet
159.81640625 598.744140625 m 0
 173.865234375 617.499023438 193.221679688 632.233398438 215.040039062 640.780273438 c 0
 236.859375 649.327148438 261.073242188 651.66015625 284.122070312 647.4375 c 0
 307.171875 643.21484375 328.986328125 632.44921875 346.357421875 616.72265625 c 0
 363.729492188 600.99609375 376.606445312 580.357421875 383.09375 557.83984375 c 0
 391.958007812 527.076171875 388.776367188 493.594726562 377.739257812 463.541015625 c 0
 366.702148438 433.487304688 348.161132812 406.631835938 326.711914062 382.86328125 c 0
 268.639648438 318.510742188 188.64453125 274.758789062 139.51953125 203.341796875 c 0
 105.916992188 154.491210938 88.9892578125 94.3876953125 92.1591796875 35.181640625 c 1
 133.626953125 31.4775390625 174.8203125 24.712890625 215.293945312 14.958984375 c 0
 243.032226562 8.275390625 271.654296875 0.134765625 299.650390625 5.640625 c 0
 321.05078125 9.849609375 340.735351562 22.24609375 353.77734375 39.7275390625 c 1024
EndSplineSet
EndChar

StartChar: three
Encoding: 51 51 69
Width: 480
VWidth: 0
Flags: HW
LayerCount: 2
Fore
SplineSet
182.91796875 638.006835938 m 0
 219.883789062 656.590820312 263.116210938 662.416992188 303.682617188 654.282226562 c 0
 335.04296875 647.993164062 365.374023438 632.973632812 385.88671875 608.43359375 c 0
 404.022460938 586.73828125 413.647460938 558.240234375 412.9921875 529.970703125 c 0
 412.336914062 501.701171875 401.52734375 473.870117188 383.400390625 452.16796875 c 0
 368.834960938 434.73046875 349.861328125 421.317382812 329.444335938 411.350585938 c 0
 309.028320312 401.383789062 287.140625 394.743164062 265.046875 389.446289062 c 0
 236.470703125 382.595703125 207.37109375 377.927734375 178.0859375 375.49609375 c 1
 205.205078125 381.4140625 233.9296875 379.790039062 260.209960938 370.852539062 c 0
 288.153320312 361.348632812 313.258789062 343.555664062 331.278320312 320.1796875 c 0
 349.298828125 296.802734375 360.12890625 267.915039062 361.661132812 238.439453125 c 0
 363.422851562 204.543945312 352.98828125 170.62109375 335.217773438 141.704101562 c 0
 317.446289062 112.788085938 292.607421875 88.6552734375 265.040039062 68.8564453125 c 0
 207.709960938 27.6806640625 137.5546875 4.6396484375 66.9755859375 3.806640625 c 1024
EndSplineSet
EndChar

StartChar: four
Encoding: 52 52 70
Width: 480
VWidth: 0
Flags: HW
LayerCount: 2
Fore
SplineSet
355.201171875 621.50390625 m 0
 311.692382812 558.591796875 270.000976562 494.5 230.064453125 429.163085938 c 0
 181.87890625 350.391601562 136.291992188 269.981445312 93.498046875 188.064453125 c 1
 146.6171875 186.556640625 199.672851562 185.639648438 252.79296875 185.180664062 c 0
 297.405273438 184.852539062 341.954101562 184.852539062 386.501953125 185.180664062 c 1024
343.836914062 311.529296875 m 0
 326.7578125 270.374023438 309.678710938 229.21875 292.665039062 188.064453125 c 0
 266.94921875 125.872070312 241.298828125 63.6806640625 215.842773438 1.4892578125 c 1024
EndSplineSet
EndChar

StartChar: five
Encoding: 53 53 71
Width: 480
VWidth: 0
Flags: HW
LayerCount: 2
Fore
SplineSet
408.19921875 685.271484375 m 0
 368.79296875 678.422851562 329.00390625 673.771484375 289.078125 671.346679688 c 0
 253.822265625 669.206054688 218.4609375 668.799804688 183.1640625 670.1328125 c 1
 159.840820312 630.02734375 142.55078125 586.420898438 132.052734375 541.23046875 c 0
 124.109375 507.030273438 120.043945312 471.9296875 119.961914062 436.819335938 c 1
 163.7890625 455.895507812 212.219726562 464.293945312 259.911132812 461.0859375 c 0
 280.032226562 459.732421875 300.13671875 456.3125 319.021484375 449.240234375 c 0
 337.907226562 442.166992188 355.580078125 431.326171875 369.208007812 416.4609375 c 0
 385.848632812 398.30859375 395.9296875 374.59375 399.171875 350.181640625 c 0
 402.411132812 325.76953125 399.01171875 300.7109375 391.028320312 277.4140625 c 0
 375.063476562 230.821289062 341.734375 192.264648438 306.043945312 158.323242188 c 0
 237.869140625 93.4873046875 158.16796875 40.806640625 71.80078125 3.4951171875 c 1024
EndSplineSet
EndChar

StartChar: six
Encoding: 54 54 72
Width: 480
VWidth: 0
Flags: HW
LayerCount: 2
Fore
SplineSet
396.233398438 628.704101562 m 0
 352.36328125 593.076171875 310.390625 555.111328125 270.552734375 515.025390625 c 0
 221.90625 466.075195312 176.182617188 413.6015625 140.896484375 354.291992188 c 0
 107.186523438 297.6328125 83.0537109375 233.453125 83.7822265625 167.528320312 c 0
 84.1533203125 133.936523438 91.208984375 99.9443359375 107.94140625 70.814453125 c 0
 124.673828125 41.6845703125 151.657226562 17.7763671875 183.913085938 8.3916015625 c 0
 213.852539062 -0.3193359375 246.732421875 3.9013671875 275.104492188 16.83203125 c 0
 303.4765625 29.763671875 327.560546875 50.9482421875 346.9453125 75.3701171875 c 0
 369.560546875 103.864257812 386.361328125 137.533203125 391.833007812 173.497070312 c 0
 397.3046875 209.461914062 390.846679688 247.750976562 370.7578125 278.079101562 c 0
 354.284179688 302.950195312 328.936523438 321.810546875 300.379882812 330.443359375 c 0
 271.82421875 339.076171875 240.2734375 337.41796875 212.780273438 325.838867188 c 1024
EndSplineSet
EndChar

StartChar: seven
Encoding: 55 55 73
Width: 480
VWidth: 0
Flags: HW
LayerCount: 2
Fore
SplineSet
111.748046875 576.963867188 m 0
 124.514648438 598.990234375 145.450195312 616.15625 169.551757812 624.359375 c 0
 189.594726562 631.180664062 211.2578125 631.877929688 232.3515625 630.051757812 c 0
 253.444335938 628.2265625 274.243164062 623.9609375 295.21875 621.083984375 c 0
 323.58203125 617.194335938 352.293945312 615.84765625 380.897460938 617.064453125 c 1
 374 596.068359375 366.161132812 575.380859375 357.415039062 555.084960938 c 0
 316.462890625 460.055664062 256.172851562 374.77734375 207.486328125 283.46875 c 0
 159.90234375 194.229492188 123.40625 99.083984375 99.1025390625 0.9150390625 c 1024
EndSplineSet
EndChar

StartChar: eight
Encoding: 56 56 74
Width: 480
VWidth: 0
Flags: HW
VStem: 85.2441 257.272<60.5258 217.158> 176.292 218.918<473.256 611.344>
LayerCount: 2
Fore
SplineSet
268.243164062 369.677734375 m 4x80
 297.9609375 390.924804688 327.397460938 413.185546875 351.077148438 441.002929688 c 4
 374.7578125 468.8203125 392.520507812 502.891601562 395.209960938 539.32421875 c 4
 397.2421875 566.849609375 390.310546875 595.19921875 374.55859375 617.86328125 c 4
 358.806640625 640.526367188 334.103515625 657.116210938 306.885742188 661.693359375 c 4
 276.91015625 666.732421875 245.272460938 656.95703125 221.747070312 637.708007812 c 4
 198.221679688 618.459960938 182.6484375 590.370117188 176.291992188 560.646484375 c 4x40
 169.935546875 530.921875 172.453125 499.6796875 181.021484375 470.515625 c 4
 189.588867188 441.3515625 204.05078125 414.16015625 221.3203125 389.145507812 c 4
 243.514648438 356.997070312 270.30859375 328.315429688 294.196289062 297.404296875 c 4
 318.083984375 266.493164062 339.41796875 232.513671875 348.288085938 194.46875 c 4
 355.65625 162.866210938 353.961914062 129.059570312 342.516601562 98.6943359375 c 4
 331.071289062 68.330078125 309.78125 41.6005859375 282.204101562 24.49609375 c 4
 254.626953125 7.392578125 220.856445312 0.1962890625 188.850585938 5.5498046875 c 4
 156.844726562 10.904296875 126.967773438 28.9755859375 108.153320312 55.4150390625 c 4
 89.080078125 82.216796875 81.876953125 116.495117188 85.244140625 149.217773438 c 4
 88.6123046875 181.940429688 102.02734375 213.127929688 120.71875 240.197265625 c 4
 158.1015625 294.3359375 214.723632812 331.413085938 268.243164062 369.677734375 c 4x80
EndSplineSet
EndChar

StartChar: nine
Encoding: 57 57 75
Width: 480
VWidth: 0
Flags: HW
LayerCount: 2
Fore
SplineSet
296.822265625 263.033203125 m 0
 258.977539062 261.658203125 220.78125 272.997070312 189.81640625 294.798828125 c 0
 158.8515625 316.600585938 135.299804688 348.73828125 123.8359375 384.831054688 c 0
 106.467773438 439.513671875 117.32421875 500.461914062 143.952148438 551.282226562 c 0
 155.2734375 572.888671875 169.529296875 593.254882812 188.065429688 609.110351562 c 0
 206.6015625 624.96484375 229.682617188 636.115234375 254.010742188 637.883789062 c 0
 276.20703125 639.497070312 298.635742188 633.21875 317.750976562 621.823242188 c 0
 336.8671875 610.426757812 352.771484375 594.088867188 365.221679688 575.642578125 c 0
 399.811523438 524.388671875 407.134765625 458.041992188 394.881835938 397.43359375 c 0
 382.629882812 336.825195312 352.392578125 281.219726562 316.9375 230.559570312 c 0
 253.713867188 140.221679688 172.557617188 62.486328125 79.58203125 3.2099609375 c 1024
EndSplineSet
EndChar

StartChar: colon
Encoding: 58 58 76
Width: 480
VWidth: 0
Flags: HW
LayerCount: 2
Fore
SplineSet
204.439453125 149.807617188 m 1
 182.415039062 97.9658203125 l 1025
297.584960938 421.602539062 m 1
 275.560546875 369.759765625 l 1025
EndSplineSet
EndChar

StartChar: semicolon
Encoding: 59 59 77
Width: 480
VWidth: 0
Flags: HW
LayerCount: 2
Fore
SplineSet
240.609375 148.96875 m 0
 224.463867188 127.178710938 207.467773438 106.016601562 189.674804688 85.546875 c 0
 170.583984375 63.583984375 150.575195312 42.4189453125 129.71875 22.125 c 1024
349.16796875 421.783203125 m 1
 327.14453125 369.940429688 l 1025
EndSplineSet
EndChar

StartChar: less
Encoding: 60 60 78
Width: 480
VWidth: 0
Flags: HW
LayerCount: 2
Fore
SplineSet
341.104492188 434.454101562 m 4
 301.041992188 395.502929688 260.346679688 357.05078125 219.1484375 319.221679688 c 4
 190.422851562 292.629882812 161.319335938 266.288085938 131.965820312 240.3203125 c 5
 164.091796875 214.8515625 195.461914062 188.508789062 226.203125 161.41796875 c 4
 268.159179688 124.463867188 308.852539062 86.01171875 348.034179688 46.185546875 c 1028
EndSplineSet
EndChar

StartChar: equal
Encoding: 61 61 79
Width: 480
VWidth: 0
Flags: HW
LayerCount: 2
Fore
SplineSet
62.5166015625 380.26953125 m 4
 138.28125 387.147460938 144.150390625 392.888671875 220.087890625 397.490234375 c 4
 309.142578125 402.885742188 328.29296875 406.71484375 417.483398438 408.973632812 c 1028
62.5166015625 150.26953125 m 4
 138.28125 157.147460938 144.150390625 162.888671875 220.087890625 167.490234375 c 4
 309.142578125 172.885742188 328.29296875 176.71484375 417.483398438 178.973632812 c 1028
EndSplineSet
EndChar

StartChar: greater
Encoding: 62 62 80
Width: 480
VWidth: 0
Flags: HW
LayerCount: 2
Fore
SplineSet
138.895507812 434.454101562 m 4
 178.958007812 395.502929688 219.653320312 357.05078125 260.8515625 319.221679688 c 4
 289.577148438 292.629882812 318.680664062 266.288085938 348.034179688 240.3203125 c 5
 315.908203125 214.8515625 284.538085938 188.508789062 253.796875 161.41796875 c 4
 211.840820312 124.463867188 171.147460938 86.01171875 131.965820312 46.185546875 c 1028
EndSplineSet
EndChar

StartChar: question
Encoding: 63 63 81
Width: 480
VWidth: 0
Flags: HW
LayerCount: 2
Fore
SplineSet
181.444335938 631.657226562 m 0
 200.513671875 652.745117188 225.235351562 668.674804688 252.3203125 677.327148438 c 0
 266.459960938 681.84375 281.314453125 684.411132812 296.145507812 683.822265625 c 0
 310.978515625 683.232421875 325.796875 679.407226562 338.551757812 671.815429688 c 0
 354.366210938 662.401367188 366.486328125 647.491210938 374.3828125 630.869140625 c 0
 382.8125 613.126953125 386.66796875 593.282226562 385.86328125 573.65625 c 0
 385.059570312 554.030273438 379.62890625 534.649414062 370.4453125 517.28515625 c 0
 350.875 480.279296875 315.962890625 454.352539062 283.032226562 428.50390625 c 0
 254.060546875 405.76171875 225.6640625 382.037109375 194.044921875 363.1484375 c 0
 183.349609375 356.759765625 172.192382812 350.853515625 163.104492188 342.333007812 c 0
 158.561523438 338.073242188 154.5703125 333.165039062 151.754882812 327.609375 c 0
 148.939453125 322.053710938 147.330078125 315.827148438 147.58203125 309.604492188 c 0
 147.82421875 303.594726562 149.767578125 297.788085938 152.009765625 292.20703125 c 0
 154.251953125 286.626953125 156.818359375 281.151367188 158.41015625 275.3515625 c 0
 160.833007812 266.51953125 160.901367188 257.052734375 158.606445312 248.185546875 c 1024
115.833984375 107.20703125 m 1
 93.6337890625 54.955078125 l 1025
EndSplineSet
EndChar

StartChar: at
Encoding: 64 64 82
Width: 480
VWidth: 0
Flags: HW
LayerCount: 2
Fore
SplineSet
293.981445312 375.514648438 m 0
 274.694335938 382.919921875 253.200195312 384.557617188 233.068359375 380.036132812 c 0
 211.704101562 375.317382812 192.091796875 363.849609375 176.1171875 348.776367188 c 0
 160.20703125 333.637695312 147.803710938 314.9609375 138.517578125 294.973632812 c 0
 119.9453125 255.063476562 113.646484375 210.565429688 106.762695312 166.985351562 c 0
 102.282226562 138.151367188 97.4111328125 108.857421875 101.697265625 80.0224609375 c 0
 103.905273438 65.60546875 108.385742188 51.3837890625 115.983398438 38.998046875 c 4
 123.58203125 26.6123046875 134.361328125 15.99609375 147.349609375 9.6396484375 c 0
 163.259765625 1.90625 181.63671875 0.7919921875 199.235351562 2.5615234375 c 0
 245.27734375 7.0830078125 289.17578125 30.544921875 318.788085938 66.45703125 c 1024
391.389648438 347.400390625 m 5
 333.723632812 125.372070312 l 6
 327.165039062 108.3984375 322.489257812 90.638671875 319.95703125 72.5517578125 c 4
 318.788085938 64.1630859375 318.008789062 55.578125 318.788085938 47.125 c 4
 319.567382812 38.6708984375 321.83984375 30.216796875 326.451171875 23.0078125 c 4
 330.216796875 17.1103515625 335.477539062 12.1953125 341.452148438 8.5908203125 c 4
 347.42578125 4.986328125 354.1796875 2.6923828125 361.063476562 1.64453125 c 4
 374.895507812 -0.5185546875 389.1171875 2.365234375 401.974609375 7.73828125 c 4
 421.5859375 15.9306640625 438.405273438 29.955078125 451.977539062 46.4033203125 c 4
 465.615234375 62.787109375 476.0703125 81.595703125 485.161132812 100.993164062 c 4
 522.760742188 181.075195312 536.592773438 274.854492188 510.682617188 359.58984375 c 4
 497.759765625 401.924804688 474.965820312 441.375976562 443.665039062 472.50390625 c 4
 412.365234375 503.567382812 372.362304688 525.979492188 329.307617188 534.827148438 c 4
 290.604492188 542.690429688 250.017578125 539.544921875 212.353515625 527.487304688 c 4
 174.688476562 515.428710938 140.01171875 494.654296875 110.26953125 468.506835938 c 4
 50.6552734375 416.2109375 11.4326171875 343.73046875 -14.3486328125 268.366210938 c 4
 -32.20703125 216.004882812 -44.28515625 161.087890625 -43.9609375 105.711914062 c 4
 -43.6357421875 50.3359375 -30.388671875 -5.6953125 -0.90625 -52.4208984375 c 4
 21.1728515625 -87.3505859375 52.01953125 -116.513671875 88.060546875 -136.370117188 c 4
 124.036132812 -156.2265625 165.012695312 -166.711914062 206.053710938 -166.646484375 c 4
 247.030273438 -166.450195312 288.006835938 -155.767578125 323.91796875 -135.71484375 c 4
 359.764648438 -115.7265625 390.545898438 -86.3681640625 412.4296875 -51.373046875 c 1028
EndSplineSet
EndChar

StartChar: quotesingle
Encoding: 39 39 83
Width: 480
VWidth: 0
Flags: HW
LayerCount: 2
Fore
SplineSet
278.239257812 677.198242188 m 0
 256.071289062 618.251953125 232.709960938 560.9140625 201.430664062 505.71875 c 1024
EndSplineSet
EndChar

StartChar: parenleft
Encoding: 40 40 84
Width: 480
VWidth: 0
Flags: HW
LayerCount: 2
Fore
SplineSet
335.38671875 662.96875 m 4
 283.565429688 621.813476562 237.458984375 573.383789062 198.8203125 519.450195312 c 4
 83.099609375 357.84375 38.6162109375 146.169921875 79.3974609375 -48.990234375 c 1028
EndSplineSet
EndChar

StartChar: parenright
Encoding: 41 41 85
Width: 480
VWidth: 0
Flags: HW
LayerCount: 2
Fore
SplineSet
389.919921875 691.594726562 m 4
 417.258789062 577.172851562 419.20703125 456.590820312 395.634765625 341.31640625 c 4
 379.984375 265.166992188 353.293945312 191.244140625 315.954101562 123.155273438 c 4
 277.185546875 52.509765625 227.052734375 -11.7138671875 168.0234375 -66.302734375 c 1028
EndSplineSet
EndChar

StartChar: percent
Encoding: 37 37 86
Width: 480
VWidth: 0
Flags: HW
LayerCount: 2
Fore
SplineSet
107 671.999023438 m 0
 100.865234375 668.564453125 95.0673828125 664.528320312 89.7138671875 659.971679688 c 0
 84.3427734375 655.400390625 79.41796875 650.305664062 75.0244140625 644.7890625 c 0
 70.6435546875 639.2890625 66.7939453125 633.365234375 63.572265625 627.116210938 c 0
 60.3505859375 620.866210938 57.7568359375 614.295898438 55.80859375 607.540039062 c 0
 53.853515625 600.763671875 52.552734375 593.796875 51.9501953125 586.76953125 c 0
 51.3505859375 579.764648438 51.4091796875 572.701171875 52.16796875 565.7109375 c 0
 52.505859375 562.602539062 52.9892578125 559.506835938 53.6728515625 556.455078125 c 0
 54.3564453125 553.404296875 55.2412109375 550.395507812 56.3876953125 547.486328125 c 0
 57.5263671875 544.598632812 58.9306640625 541.810546875 60.634765625 539.21484375 c 0
 62.076171875 537.020507812 63.7294921875 534.96484375 65.5556640625 533.078125 c 0
 67.388671875 531.18359375 69.39453125 529.45703125 71.5322265625 527.915039062 c 0
 73.666015625 526.376953125 75.9326171875 525.024414062 78.2958984375 523.87109375 c 0
 80.65625 522.719726562 83.11328125 521.766601562 85.6279296875 521.010742188 c 0
 88.1533203125 520.251953125 90.736328125 519.690429688 93.3466796875 519.3203125 c 0
 95.9501953125 518.952148438 98.5810546875 518.774414062 101.2109375 518.783203125 c 0
 106.4453125 518.80078125 111.668945312 519.560546875 116.720703125 520.931640625 c 0
 121.80859375 522.3125 126.724609375 524.306640625 131.384765625 526.772460938 c 0
 136.045898438 529.240234375 140.454101562 532.181640625 144.5625 535.490234375 c 0
 149.90234375 539.790039062 154.737304688 544.709960938 159.01171875 550.0703125 c 0
 163.306640625 555.454101562 167.037109375 561.28515625 170.168945312 567.419921875 c 0
 173.295898438 573.54296875 175.83203125 579.966796875 177.7421875 586.572265625 c 0
 179.2578125 591.813476562 180.37890625 597.171875 181.033203125 602.58984375 c 0
 181.686523438 608.008789062 181.87109375 613.48828125 181.4921875 618.93359375 c 0
 181.115234375 624.345703125 180.177734375 629.72265625 178.609375 634.916015625 c 0
 177.821289062 637.521484375 176.876953125 640.080078125 175.7734375 642.569335938 c 0
 174.66796875 645.064453125 173.404296875 647.489257812 171.982421875 649.819335938 c 0
 170.56640625 652.140625 168.993164062 654.3671875 167.267578125 656.46875 c 0
 165.540039062 658.573242188 163.659179688 660.551757812 161.641601562 662.37890625 c 0
 159.618164062 664.2109375 157.45703125 665.890625 155.177734375 667.391601562 c 0
 152.90625 668.885742188 150.516601562 670.202148438 148.03125 671.305664062 c 0
 143.202148438 673.450195312 138.013671875 674.768554688 132.751953125 675.26171875 c 0
 127.46484375 675.756835938 122.103515625 675.4375 116.90625 674.341796875 c 1024
  Spiro
    107 672 {
    89.7136 659.972 o
    75.0239 644.79 o
    63.5725 627.117 o
    55.808 607.541 o
    51.9504 586.77 o
    52.168 565.712 o
    53.6731 556.456 o
    56.3879 547.487 o
    60.6347 539.216 o
    65.5555 533.079 o
    71.5323 527.916 o
    78.2959 523.872 o
    85.6283 521.012 o
    93.3464 519.321 o
    101.211 518.784 o
    116.72 520.933 o
    131.384 526.774 o
    144.562 535.491 o
    159.012 550.071 o
    170.169 567.42 o
    177.742 586.573 o
    181.033 602.591 o
    181.492 618.935 o
    178.609 634.917 o
    175.774 642.57 o
    171.983 649.82 o
    167.267 656.47 o
    161.641 662.38 o
    155.178 667.392 o
    148.031 671.306 o
    132.752 675.262 o
    116.907 674.343 o
    0 0 z
  EndSpiro
345.831054688 189.579101562 m 0
 339.696289062 186.14453125 333.8984375 182.108398438 328.544921875 177.551757812 c 0
 323.173828125 172.98046875 318.249023438 167.885742188 313.85546875 162.369140625 c 0
 309.474609375 156.869140625 305.625 150.9453125 302.403320312 144.696289062 c 0
 299.181640625 138.446289062 296.587890625 131.875976562 294.639648438 125.120117188 c 0
 292.684570312 118.34375 291.383789062 111.376953125 290.78125 104.349609375 c 0
 290.181640625 97.3447265625 290.240234375 90.28125 290.999023438 83.291015625 c 0
 291.336914062 80.1826171875 291.8203125 77.0869140625 292.50390625 74.03515625 c 0
 293.1875 70.984375 294.072265625 67.9755859375 295.21875 65.06640625 c 0
 296.357421875 62.1787109375 297.76171875 59.390625 299.465820312 56.794921875 c 0
 300.907226562 54.6005859375 302.560546875 52.544921875 304.38671875 50.658203125 c 0
 306.219726562 48.763671875 308.225585938 47.037109375 310.36328125 45.4951171875 c 0
 312.497070312 43.95703125 314.763671875 42.6044921875 317.126953125 41.451171875 c 0
 319.487304688 40.2998046875 321.944335938 39.3466796875 324.458984375 38.5908203125 c 0
 326.984375 37.83203125 329.567382812 37.2705078125 332.177734375 36.900390625 c 0
 334.78125 36.5322265625 337.412109375 36.3544921875 340.041992188 36.36328125 c 0
 345.276367188 36.380859375 350.5 37.140625 355.551757812 38.51171875 c 0
 360.639648438 39.892578125 365.555664062 41.88671875 370.215820312 44.3525390625 c 0
 374.876953125 46.8203125 379.28515625 49.76171875 383.393554688 53.0703125 c 0
 388.733398438 57.3701171875 393.568359375 62.2900390625 397.842773438 67.650390625 c 0
 402.137695312 73.0341796875 405.868164062 78.865234375 409 85 c 0
 412.126953125 91.123046875 414.663085938 97.546875 416.573242188 104.15234375 c 0
 418.088867188 109.393554688 419.209960938 114.751953125 419.864257812 120.169921875 c 0
 420.517578125 125.588867188 420.702148438 131.068359375 420.323242188 136.513671875 c 0
 419.946289062 141.92578125 419.008789062 147.302734375 417.440429688 152.49609375 c 0
 416.65234375 155.1015625 415.708007812 157.66015625 414.604492188 160.149414062 c 0
 413.499023438 162.64453125 412.235351562 165.069335938 410.813476562 167.399414062 c 0
 409.397460938 169.720703125 407.82421875 171.947265625 406.098632812 174.048828125 c 0
 404.37109375 176.153320312 402.490234375 178.131835938 400.47265625 179.958984375 c 0
 398.44921875 181.791015625 396.288085938 183.470703125 394.008789062 184.971679688 c 0
 391.737304688 186.465820312 389.34765625 187.782226562 386.862304688 188.885742188 c 0
 382.033203125 191.030273438 376.844726562 192.348632812 371.583007812 192.841796875 c 0
 366.295898438 193.336914062 360.934570312 193.017578125 355.737304688 191.921875 c 1024
  Spiro
    345.831 189.58 {
    328.545 177.552 o
    313.855 162.37 o
    302.404 144.696 o
    294.639 125.121 o
    290.781 104.35 o
    290.999 83.2919 o
    292.504 74.0358 o
    295.219 65.0672 o
    299.466 56.7957 o
    304.387 50.6585 o
    310.363 45.4957 o
    317.127 41.4515 o
    324.459 38.5913 o
    332.177 36.901 o
    340.042 36.3637 o
    355.552 38.5123 o
    370.215 44.3534 o
    383.393 53.0706 o
    397.843 67.6504 o
    409 85 o
    416.573 104.152 o
    419.864 120.17 o
    420.323 136.514 o
    417.44 152.496 o
    414.605 160.15 o
    410.814 167.4 o
    406.098 174.05 o
    400.472 179.96 o
    394.009 184.972 o
    386.863 188.886 o
    371.583 192.842 o
    355.738 191.922 o
    0 0 z
  EndSpiro
400.723632812 725.485351562 m 0
 344.291992188 596.122070312 287.405273438 466.889648438 229.999023438 337.984375 c 0
 180.125976562 225.856445312 129.86328125 113.859375 79.2763671875 2.05859375 c 1024
  Spiro
    400.724 725.485 {
    344.195 596.302 o
    287.177 466.862 o
    229.999 337.984 o
    180.049 226.015 o
    129.702 113.81 o
    79.2764 2.05859 o
    0 0 z
  EndSpiro
EndSplineSet
EndChar

StartChar: exclam
Encoding: 33 33 87
Width: 480
VWidth: 0
Flags: HW
LayerCount: 2
Fore
SplineSet
355.291015625 676.65234375 m 0
 326.399414062 621.280273438 300.5625 564.317382812 277.936523438 506.107421875 c 0
 245.3046875 422.158203125 219.356445312 335.615234375 200.419921875 247.564453125 c 1024
181.200195312 118.170898438 m 0
 175.5234375 107.12109375 171.587890625 95.177734375 169.584960938 82.91796875 c 0
 167.9921875 73.166015625 167.619140625 63.2158203125 168.4765625 53.3720703125 c 1024
EndSplineSet
EndChar

StartChar: quotedbl
Encoding: 34 34 88
Width: 480
VWidth: 0
Flags: HW
LayerCount: 2
Fore
SplineSet
209.625 677.197265625 m 0
 187.458007812 618.250976562 164.096679688 560.912109375 132.817382812 505.716796875 c 1024
346.852539062 677.197265625 m 0
 324.684570312 618.250976562 301.323242188 560.912109375 270.045898438 505.716796875 c 1024
EndSplineSet
EndChar

StartChar: numbersign
Encoding: 35 35 89
Width: 480
VWidth: 0
Flags: HW
LayerCount: 2
Fore
SplineSet
490.723632812 665.485351562 m 0
 434.291992188 536.122070312 397.405273438 466.889648438 339.999023438 337.984375 c 0
 290.125976562 225.856445312 239.86328125 113.859375 189.276367188 2.05859375 c 1024
300.723632812 665.485351562 m 0
 244.291992188 536.122070312 207.405273438 466.889648438 149.999023438 337.984375 c 0
 100.125976562 225.856445312 49.86328125 113.859375 -0.7236328125 2.05859375 c 1024
92.5166015625 420.26953125 m 0
 168.28125 427.147460938 174.150390625 432.888671875 250.087890625 437.490234375 c 0
 339.142578125 442.885742188 358.29296875 446.71484375 447.483398438 448.973632812 c 1024
2.5166015625 190.26953125 m 0
 78.28125 197.147460938 84.150390625 202.888671875 160.087890625 207.490234375 c 0
 249.142578125 212.885742188 268.29296875 216.71484375 357.483398438 218.973632812 c 1024
EndSplineSet
EndChar

StartChar: ccedilla
Encoding: 231 231 95
Width: 480
VWidth: 0
Flags: HW
LayerCount: 2
Fore
SplineSet
240.162109375 -8.1044921875 m 4
 223.993164062 -29.927734375 206.978515625 -51.0947265625 189.25 -71.5419921875 c 4
 170.09375 -93.4951171875 150.091796875 -114.663085938 129.247070312 -134.978515625 c 1028
EndSplineSet
Refer: 34 99 N 1 0 0 1 0 0 2
EndChar

StartChar: oe
Encoding: 339 339 112
Width: 480
VWidth: 0
Flags: HW
LayerCount: 2
Fore
SplineSet
187.379882812 377.799804688 m 0
 179.33203125 379.456054688 170.899414062 378.939453125 162.983398438 376.739257812 c 0
 155.06640625 374.540039062 147.655273438 370.6875 141.028320312 365.830078125 c 0
 127.772460938 356.116210938 117.795898438 342.603515625 109.154296875 328.625976562 c 0
 74.19140625 272.0703125 58.443359375 206.142578125 40.2470703125 142.190429688 c 0
 32.4990234375 114.9609375 24.1328125 87.0830078125 26.5849609375 58.87890625 c 0
 27.8115234375 44.77734375 31.8427734375 30.7685546875 39.4921875 18.859375 c 0
 47.140625 6.94921875 58.5625 -2.7509765625 72.0234375 -7.1259765625 c 0
 83.736328125 -10.9326171875 96.609375 -10.599609375 108.408203125 -7.0673828125 c 0
 120.206054688 -3.537109375 130.953125 3.091796875 140.067382812 11.375 c 0
 158.296875 27.939453125 169.780273438 50.5322265625 179.706054688 73.0751953125 c 0
 207.42578125 136.03515625 226.15234375 203.0703125 233.561523438 271.461914062 c 0
 235.853515625 292.622070312 236.998046875 314.495117188 230.466796875 334.750976562 c 0
 227.200195312 344.87890625 221.9921875 354.467773438 214.658203125 362.178710938 c 0
 207.32421875 369.889648438 197.802734375 375.654296875 187.379882812 377.799804688 c 0
163.815429688 378.147460938 m 0
 137.748046875 357.817382812 116.9453125 330.794921875 103.95703125 300.39453125 c 0
 94.291015625 277.766601562 88.94140625 253.4375 86.6708984375 228.936523438 c 0
 83.4306640625 193.973632812 86.6328125 157.640625 101.864257812 126.002929688 c 0
 109.479492188 110.18359375 120.06640625 95.7138671875 133.37890625 84.267578125 c 0
 146.690429688 72.8212890625 162.76171875 64.4599609375 179.954101562 60.904296875 c 0
 205.37890625 55.646484375 232.197265625 61.087890625 255.623046875 72.28125 c 0
 279.049804688 83.4736328125 299.444335938 100.129882812 318.302734375 117.975585938 c 0
 350.706054688 148.640625 379.290039062 183.28125 403.807617188 220.5546875 c 0
 415.719726562 238.662109375 426.810546875 257.701171875 432.333984375 278.66015625 c 0
 437.858398438 299.619140625 437.323242188 322.90234375 426.837890625 341.872070312 c 0
 420.890625 352.6328125 411.91796875 361.651367188 401.358398438 367.948242188 c 0
 390.797851562 374.24609375 378.6875 377.841796875 366.420898438 378.671875 c 0
 351.893554688 379.653320312 337.209960938 376.784179688 323.80859375 371.090820312 c 0
 310.407226562 365.397460938 298.268554688 356.928710938 287.756835938 346.852539062 c 0
 266.732421875 326.702148438 252.434570312 300.545898438 241.040039062 273.745117188 c 0
 224.217773438 234.180664062 212.938476562 191.62109375 213.985351562 148.640625 c 0
 214.977539062 107.895507812 227.530273438 66.9658203125 252.502929688 34.7568359375 c 0
 267.733398438 15.1123046875 288.182617188 -1.47265625 312.333984375 -7.3486328125 c 0
 329.907226562 -11.625 348.4921875 -10.0234375 366.022460938 -5.572265625 c 0
 383.551757812 -1.1220703125 400.235351562 6.08984375 416.892578125 13.13671875 c 0
 437.838867188 21.998046875 458.875976562 30.646484375 480 39.078125 c 1024
0.3173828125 39.4033203125 m 0
 5.033203125 42.296875 9.4482421875 45.6787109375 13.4697265625 49.4775390625 c 0
 18.158203125 53.9072265625 22.3095703125 58.904296875 25.806640625 64.32421875 c 1024
EndSplineSet
EndChar

StartChar: dotlessi
Encoding: 305 305 113
Width: 480
VWidth: 0
Flags: HW
LayerCount: 2
Fore
SplineSet
0 39.078125 m 4
 55.43359375 70.462890625 106.63671875 109.466796875 151.776367188 154.61328125 c 4
 191.186523438 194.020507812 225.966796875 238.092773438 255.149414062 285.65625 c 1028
292.744140625 373.263671875 m 1
 220.653320312 207.983398438 l 2
 208.693359375 180.66015625 195.301757812 153.975585938 184.307617188 126.249023438 c 0
 178.811523438 112.38671875 174.213867188 98.0205078125 172.381835938 83.2177734375 c 0
 170.549804688 68.4150390625 171.6484375 52.9404296875 177.579101562 39.279296875 c 0
 182.80859375 27.1953125 191.704101562 16.857421875 202.364257812 9.2041015625 c 0
 213.024414062 1.55078125 225.383789062 -3.517578125 238.17578125 -6.37109375 c 0
 269.2578125 -13.3193359375 301.60546875 -7.34375 332.6875 -0.4970703125 c 0
 382.357421875 10.4462890625 431.528320312 23.6376953125 480 39.078125 c 1024
EndSplineSet
EndChar

StartChar: quoteleft
Encoding: 8216 8216 114
Width: 1000
VWidth: 0
Flags: HW
LayerCount: 2
Fore
SplineSet
270.107421875 529.84765625 m 4
 258.317382812 534.630859375 247.03515625 540.665039062 236.512695312 547.815429688 c 4
 228.467773438 553.283203125 220.608398438 559.71875 216.4453125 568.506835938 c 4
 212.428710938 576.986328125 212.288085938 586.891601562 214.270507812 596.061523438 c 4
 216.251953125 605.232421875 220.220703125 613.834960938 224.208007812 622.328125 c 4
 232.7734375 640.567382812 241.561523438 658.700195312 250.57421875 676.72265625 c 1028
EndSplineSet
EndChar

StartChar: quoteright
Encoding: 8217 8217 115
Width: 480
VWidth: 0
Flags: HW
LayerCount: 2
Fore
SplineSet
209.892578125 674.325195312 m 0
 221.682617188 669.541992188 232.963867188 663.5078125 243.486328125 656.357421875 c 0
 251.532226562 650.889648438 259.390625 644.454101562 263.5546875 635.666992188 c 0
 267.571289062 627.186523438 267.7109375 617.28125 265.729492188 608.111328125 c 0
 263.747070312 598.940429688 259.779296875 590.337890625 255.791015625 581.844726562 c 0
 247.227539062 563.60546875 238.438476562 545.47265625 229.424804688 527.450195312 c 1024
EndSplineSet
EndChar

StartChar: emdash
Encoding: 8212 8212 118
Width: 480
VWidth: 0
Flags: HW
LayerCount: 2
Fore
SplineSet
0 256 m 0
 75.7646484375 262.877929688 144.150390625 253.889648438 220.087890625 258.490234375 c 0
 309.142578125 263.885742188 390.809570312 253.741210938 480 256 c 1024
EndSplineSet
EndChar

StartChar: endash
Encoding: 8211 8211 119
Width: 480
VWidth: 0
Flags: HW
LayerCount: 2
Fore
SplineSet
120 250 m 0
 195.764648438 256.877929688 169.150390625 263.889648438 245.087890625 268.490234375 c 0
 334.142578125 273.885742188 315.405273438 278.870117188 360 280 c 1024
EndSplineSet
EndChar

StartChar: Idieresis
Encoding: 207 207 120
Width: 480
VWidth: 0
Flags: HW
LayerCount: 2
Fore
SplineSet
321.473632812 605.688476562 m 0
 308.870117188 555.63671875 295.811523438 505.69921875 282.30078125 455.883789062 c 0
 259.275390625 370.98828125 234.93359375 286.44140625 208.564453125 202.524414062 c 0
 187.8203125 136.51171875 165.823242188 70.8916015625 142.588867188 5.7138671875 c 1024
EndSplineSet
Refer: 139 168 S 1 0 0 1 113 188 2
EndChar

StartChar: Igrave
Encoding: 204 204 121
Width: 480
VWidth: 0
Flags: HW
LayerCount: 2
Fore
SplineSet
321.473632812 605.688476562 m 4
 308.870117188 555.63671875 295.811523438 505.69921875 282.30078125 455.883789062 c 4
 259.275390625 370.98828125 234.93359375 286.44140625 208.564453125 202.524414062 c 4
 187.8203125 136.51171875 165.823242188 70.8916015625 142.588867188 5.7138671875 c 1028
EndSplineSet
Refer: 31 96 N 1 0 0 1 80 190 2
EndChar

StartChar: acute
Encoding: 180 180 122
Width: 480
VWidth: 0
Flags: HW
LayerCount: 2
Fore
SplineSet
401.888671875 609.947265625 m 0
 385.731445312 588.129882812 393.75390625 595.881835938 375.96484375 575.407226562 c 4
 356.842773438 553.454101562 336.854492188 532.274414062 316 512 c 1028
EndSplineSet
EndChar

StartChar: Iacute
Encoding: 205 205 123
Width: 480
VWidth: 0
Flags: HW
LayerCount: 2
Fore
SplineSet
321.473632812 605.688476562 m 0
 308.870117188 555.63671875 295.811523438 505.69921875 282.30078125 455.883789062 c 0
 259.275390625 370.98828125 234.93359375 286.44140625 208.564453125 202.524414062 c 0
 187.8203125 136.51171875 165.823242188 70.8916015625 142.588867188 5.7138671875 c 1024
EndSplineSet
Refer: 122 180 S 1 0 0 1 -10 190 2
EndChar

StartChar: Ccedilla
Encoding: 199 199 132
Width: 480
VWidth: 0
Flags: HW
LayerCount: 2
Fore
SplineSet
194 -12 m 4
 177.831054688 -33.8232421875 160.81640625 -54.990234375 143.087890625 -75.4375 c 4
 123.931640625 -97.390625 96.091796875 -128.663085938 75.2470703125 -148.978515625 c 1028
EndSplineSet
Refer: 3 67 N 1 0 0 1 0 0 2
EndChar

StartChar: dieresis
Encoding: 168 168 139
Width: 480
VWidth: 0
Flags: HW
LayerCount: 2
Fore
SplineSet
316.01171875 612.747070312 m 1
 293.98828125 560.905273438 l 1025
186.01171875 612.747070312 m 1
 163.98828125 560.905273438 l 1025
EndSplineSet
EndChar

StartChar: Icircumflex
Encoding: 206 206 142
Width: 480
VWidth: 0
Flags: HW
LayerCount: 2
Fore
SplineSet
321.473632812 605.688476562 m 0
 308.870117188 555.63671875 295.811523438 505.69921875 282.30078125 455.883789062 c 0
 259.275390625 370.98828125 234.93359375 286.44140625 208.564453125 202.524414062 c 0
 187.8203125 136.51171875 165.823242188 70.8916015625 142.588867188 5.7138671875 c 1024
EndSplineSet
Refer: 1 94 S 1 0 0 1 110 220 2
EndChar

StartChar: ellipsis
Encoding: 8230 8230 143
Width: 480
VWidth: 0
Flags: HW
LayerCount: 2
Fore
SplineSet
91.01171875 106.795898438 m 1
 68.986328125 54.953125 l 1025
251.01171875 106.795898438 m 1
 228.98828125 54.953125 l 1025
411.013671875 106.795898438 m 1
 388.990234375 54.953125 l 1025
EndSplineSet
EndChar

StartChar: intersection
Encoding: 8745 8745 146
Width: 480
VWidth: 0
Flags: HW
LayerCount: 2
Fore
SplineSet
307.83984375 -0.6767578125 m 4
 319.874023438 39.392578125 332.545898438 79.2705078125 345.850585938 118.935546875 c 4
 383.234375 230.392578125 425.611328125 340.174804688 460.46484375 452.448242188 c 4
 466.46875 471.787109375 472.272460938 491.314453125 474.666015625 511.421875 c 4
 477.059570312 531.529296875 475.901367188 552.413085938 468.33984375 571.198242188 c 4
 458.954101562 594.516601562 439.891601562 613.420898438 417.219726562 624.27734375 c 4
 394.548828125 635.134765625 368.516601562 638.194335938 343.620117188 634.731445312 c 4
 318.72265625 631.268554688 294.936523438 621.48046875 273.724609375 607.994140625 c 4
 252.512695312 594.506835938 233.784179688 577.37890625 216.96484375 558.698242188 c 4
 143.912109375 477.55859375 108.311523438 370.258789062 77.1005859375 265.634765625 c 4
 51.076171875 178.396484375 26.7744140625 90.6455078125 4.21484375 2.4482421875 c 1028
EndSplineSet
EndChar

StartChar: arrowboth
Encoding: 8596 8596 147
Width: 480
VWidth: 0
Flags: HW
LayerCount: 2
Fore
SplineSet
64.6435546875 240.7734375 m 0
 140.408203125 247.651367188 147.150390625 252.889648438 223.087890625 257.490234375 c 0
 312.142578125 262.885742188 336.197265625 265.944335938 425.387695312 268.203125 c 1024
336.96484375 393.947265625 m 0
 357.76953125 375.299804688 378.880859375 356.916015625 400.231445312 338.852539062 c 0
 415.122070312 326.150390625 460.1953125 283.581054688 475.387695312 271.203125 c 1
 459.854492188 257.828125 424.716796875 214.030273438 409.908203125 199.873046875 c 0
 389.696289062 180.559570312 370.147460938 160.524414062 351.379882812 139.83203125 c 1024
142.21484375 366.977539062 m 4
 122.985351562 346.709960938 103.428710938 326.6796875 83.609375 306.94921875 c 4
 69.79296875 293.084960938 25.78515625 249.337890625 11.6435546875 235.7734375 c 5
 28.20703125 223.697265625 64.41015625 191.168945312 80.314453125 178.25390625 c 4
 102.020507812 160.637695312 123.125 142.248046875 143.50390625 123.140625 c 1028
EndSplineSet
EndChar

StartChar: guillemotleft
Encoding: 171 171 148
Width: 480
VWidth: 0
Flags: HW
LayerCount: 2
Fore
SplineSet
396.104492188 434.454101562 m 0
 356.041992188 395.502929688 315.346679688 357.05078125 274.1484375 319.221679688 c 0
 245.422851562 292.629882812 216.319335938 266.288085938 186.965820312 240.3203125 c 1
 219.091796875 214.8515625 250.461914062 188.508789062 281.203125 161.41796875 c 0
 323.159179688 124.463867188 363.852539062 86.01171875 403.034179688 46.185546875 c 1024
256.104492188 434.454101562 m 4
 216.041992188 395.502929688 175.346679688 357.05078125 134.1484375 319.221679688 c 4
 105.422851562 292.629882812 76.3193359375 266.288085938 46.9658203125 240.3203125 c 5
 79.091796875 214.8515625 110.461914062 188.508789062 141.203125 161.41796875 c 4
 183.159179688 124.463867188 223.852539062 86.01171875 263.034179688 46.185546875 c 1028
EndSplineSet
EndChar

StartChar: guillemotright
Encoding: 187 187 149
Width: 480
VWidth: 0
Flags: HW
LayerCount: 2
Fore
SplineSet
98.8955078125 434.454101562 m 0
 138.958007812 395.502929688 179.653320312 357.05078125 220.8515625 319.221679688 c 0
 249.577148438 292.629882812 278.680664062 266.288085938 308.034179688 240.3203125 c 1
 275.908203125 214.8515625 244.538085938 188.508789062 213.796875 161.41796875 c 0
 171.840820312 124.463867188 131.147460938 86.01171875 91.9658203125 46.185546875 c 1024
238.895507812 434.454101562 m 4
 278.958007812 395.502929688 319.653320312 357.05078125 360.8515625 319.221679688 c 4
 389.577148438 292.629882812 418.680664062 266.288085938 448.034179688 240.3203125 c 5
 415.908203125 214.8515625 384.538085938 188.508789062 353.796875 161.41796875 c 4
 311.840820312 124.463867188 271.147460938 86.01171875 231.965820312 46.185546875 c 1028
EndSplineSet
EndChar

StartChar: arrowright
Encoding: 8594 8594 150
Width: 480
VWidth: 0
Flags: HW
LayerCount: 2
Back
SplineSet
8.1279296875 235.7734375 m 4
 83.892578125 242.651367188 140.634765625 252.889648438 216.572265625 257.490234375 c 4
 305.626953125 262.885742188 382.681640625 268.944335938 471.872070312 271.203125 c 1028
363.44921875 363.947265625 m 4
 384.25390625 345.299804688 405.365234375 326.916015625 426.715820312 308.852539062 c 4
 441.606445312 296.150390625 456.6796875 283.581054688 471.872070312 271.203125 c 5
 456.338867188 257.828125 441.201171875 244.030273438 426.392578125 229.873046875 c 4
 406.180664062 210.559570312 386.631835938 190.524414062 367.864257812 169.83203125 c 1028
EndSplineSet
Fore
SplineSet
336.96484375 393.947265625 m 4
 357.76953125 375.299804688 378.880859375 356.916015625 400.231445312 338.852539062 c 4
 415.122070312 326.150390625 460.1953125 283.581054688 475.387695312 271.203125 c 5
 459.854492188 257.828125 424.716796875 214.030273438 409.908203125 199.873046875 c 4
 389.696289062 180.559570312 370.147460938 160.524414062 351.379882812 139.83203125 c 1028
11.6435546875 235.7734375 m 0
 87.408203125 242.651367188 144.150343622 252.889447604 220.087890625 257.490234375 c 0
 309.142578125 262.885742188 386.197265625 268.944335938 475.387695312 271.203125 c 1024
EndSplineSet
EndChar

StartChar: arrowleft
Encoding: 8592 8592 151
Width: 480
VWidth: 0
Flags: HW
LayerCount: 2
Fore
SplineSet
142.21484375 366.977539062 m 0
 122.985351562 346.709960938 103.428710938 326.6796875 83.609375 306.94921875 c 0
 69.79296875 293.084960938 25.78515625 249.337890625 11.6435546875 235.7734375 c 1
 28.20703125 223.697265625 64.41015625 191.168945312 80.314453125 178.25390625 c 0
 102.020507812 160.637695312 123.125 142.248046875 143.50390625 123.140625 c 1024
11.6435546875 235.7734375 m 0
 87.408203125 242.651367188 144.150343622 252.889447604 220.087890625 257.490234375 c 0
 309.142578125 262.885742188 386.197265625 268.944335938 475.387695312 271.203125 c 1024
EndSplineSet
EndChar

StartChar: arrowup
Encoding: 8593 8593 152
Width: 480
VWidth: 0
Flags: HW
LayerCount: 2
Fore
SplineSet
271.116210938 42.6435546875 m 4
 264.23828125 118.408203125 254 175.150390625 249.399414062 251.087890625 c 4
 244.00390625 340.142578125 237.9453125 417.197265625 235.686523438 506.387695312 c 1028
142.942382812 397.96484375 m 4
 161.58984375 418.76953125 179.973632812 439.880859375 198.037109375 461.231445312 c 4
 210.739257812 476.122070312 223.30859375 491.1953125 235.686523438 506.387695312 c 5
 249.061523438 490.854492188 262.859375 475.716796875 277.016601562 460.908203125 c 4
 296.330078125 440.696289062 316.365234375 421.147460938 337.057617188 402.379882812 c 1028
EndSplineSet
EndChar

StartChar: arrowdown
Encoding: 8595 8595 153
Width: 480
VWidth: 0
Flags: HW
LayerCount: 2
Fore
SplineSet
208.883789062 500.356445312 m 4
 215.76171875 424.591796875 226 367.849609375 230.600585938 291.912109375 c 4
 235.99609375 202.857421875 242.0546875 125.802734375 244.313476562 36.6123046875 c 1028
337.057617188 145.03515625 m 4
 318.41015625 124.23046875 300.026367188 103.119140625 281.962890625 81.7685546875 c 4
 269.260742188 66.8779296875 256.69140625 51.8046875 244.313476562 36.6123046875 c 5
 230.938476562 52.1455078125 217.140625 67.283203125 202.983398438 82.091796875 c 4
 183.669921875 102.303710938 163.634765625 121.852539062 142.942382812 140.620117188 c 1028
EndSplineSet
EndChar

StartChar: arrowupdn
Encoding: 8597 8597 154
Width: 480
VWidth: 0
Flags: HW
LayerCount: 2
Fore
SplineSet
257.770507812 36.6435546875 m 4
 250.892578125 112.408203125 240.654296875 169.150390625 236.053710938 245.087890625 c 4
 230.658203125 334.142578125 224.599609375 411.197265625 222.340820312 500.387695312 c 1028
129.596679688 391.96484375 m 4
 148.244140625 412.76953125 166.627929688 433.880859375 184.69140625 455.231445312 c 4
 197.393554688 470.122070312 209.962890625 485.1953125 222.340820312 500.387695312 c 5
 235.715820312 484.854492188 249.513671875 469.716796875 263.670898438 454.908203125 c 4
 282.984375 434.696289062 303.01953125 415.147460938 323.711914062 396.379882812 c 1028
156.56640625 137.21484375 m 4
 176.833984375 117.985351562 196.864257812 98.4287109375 216.594726562 78.609375 c 4
 230.458984375 64.79296875 244.206054688 50.78515625 257.770507812 36.6435546875 c 5
 269.846679688 53.20703125 282.375 69.41015625 295.290039062 85.314453125 c 4
 312.90625 107.020507812 331.295898438 128.125 350.403320312 148.50390625 c 1028
EndSplineSet
EndChar

StartChar: uni2197
Encoding: 8599 8599 155
Width: 480
VWidth: 0
Flags: HW
LayerCount: 2
Fore
SplineSet
88.568359375 50.734375 m 4
 137.279296875 109.171875 170.162109375 156.533203125 220.60546875 213.482421875 c 4
 279.759765625 280.26953125 329.962890625 339.0390625 391.431640625 403.703125 c 1028
249.185546875 392.6171875 m 4
 277.08203125 394.142578125 305.009765625 396.071289062 332.87890625 398.395507812 c 4
 352.390625 399.943359375 371.9375 401.713867188 391.431640625 403.703125 c 5
 389.90625 383.262695312 388.958984375 362.801757812 388.498046875 342.3203125 c 4
 387.86328125 314.37109375 388.20703125 286.380859375 389.568359375 258.478515625 c 1028
EndSplineSet
EndChar

StartChar: uni2198
Encoding: 8600 8600 156
Width: 480
VWidth: 0
Flags: HW
LayerCount: 2
Fore
SplineSet
63.515625 348.431640625 m 4
 121.953125 299.720703125 169.314453125 266.837890625 226.263671875 216.39453125 c 4
 293.05078125 157.240234375 351.8203125 107.037109375 416.484375 45.568359375 c 1028
405.3984375 187.814453125 m 4
 406.923828125 159.91796875 408.852539062 131.990234375 411.176757812 104.12109375 c 4
 412.724609375 84.609375 414.495117188 65.0625 416.484375 45.568359375 c 5
 396.043945312 47.09375 375.583007812 48.041015625 355.1015625 48.501953125 c 4
 327.15234375 49.13671875 299.162109375 48.79296875 271.259765625 47.431640625 c 1028
EndSplineSet
EndChar

StartChar: uni2199
Encoding: 8601 8601 157
Width: 480
VWidth: 0
Flags: HW
LayerCount: 2
Fore
SplineSet
88.791015625 41.8125 m 4
 137.501953125 100.25 170.384765625 147.612304688 220.828125 204.560546875 c 4
 279.984375 271.34765625 330.185546875 330.1171875 391.65625 394.78125 c 1028
88.34375 184.489257812 m 4
 89.078125 156.560546875 89.4140625 128.568359375 89.349609375 100.602539062 c 4
 89.384765625 81.029296875 89.19921875 61.4033203125 88.791015625 41.8125 c 5
 109.04296875 44.9853515625 129.359375 47.583984375 149.73828125 49.697265625 c 4
 177.54296875 52.58984375 205.46875 54.509765625 233.390625 55.408203125 c 1028
EndSplineSet
EndChar

StartChar: uni2196
Encoding: 8598 8598 158
Width: 480
VWidth: 0
Flags: HW
LayerCount: 2
Fore
SplineSet
63.515625 354.3828125 m 4
 121.952148438 305.672851562 169.314453125 272.7890625 226.263671875 222.346679688 c 4
 293.049804688 163.190429688 351.8203125 112.98828125 416.484375 51.5185546875 c 1028
206.19140625 354.830078125 m 4
 178.263671875 354.095703125 150.271484375 353.760742188 122.3046875 353.82421875 c 4
 102.732421875 353.790039062 83.1064453125 353.974609375 63.515625 354.3828125 c 5
 66.6884765625 334.131835938 69.287109375 313.815429688 71.400390625 293.436523438 c 4
 74.2919921875 265.631835938 76.2119140625 237.705078125 77.111328125 209.784179688 c 1028
EndSplineSet
EndChar

StartChar: uni0435
Encoding: 1077 1077 159
Width: 480
VWidth: 0
Flags: HW
LayerCount: 2
Fore
SplineSet
-2.404296875 40.7314453125 m 4
 78.568359375 74.4658203125 159.37109375 108.604492188 240.001953125 143.146484375 c 0
 284.525390625 162.219726562 330.787109375 182.73828125 361.361328125 220.306640625 c 0
 376.6484375 239.08984375 387.431640625 261.998046875 389.455078125 286.131835938 c 0
 391.478515625 310.265625 384.166015625 335.552734375 367.576171875 353.197265625 c 0
 355.3515625 366.19921875 338.62109375 374.60546875 321.087890625 377.940429688 c 0
 303.556640625 381.275390625 285.2734375 379.696289062 268.1484375 374.668945312 c 0
 233.900390625 364.615234375 205.0625 341.490234375 179.39453125 316.686523438 c 0
 140.7734375 279.364257812 106.24609375 235.453125 91.853515625 183.708984375 c 0
 84.658203125 157.836914062 82.734375 130.30859375 87.994140625 103.974609375 c 0
 93.255859375 77.640625 105.89453125 52.5732421875 125.17578125 33.8818359375 c 0
 148.71875 11.060546875 180.958984375 -1.2705078125 213.470703125 -5.5107421875 c 0
 245.984375 -9.7509765625 279.0078125 -6.4541015625 311.419921875 -1.505859375 c 0
 369.54296875 7.3662109375 412.404296875 40.8115234375 412.404296875 40.8115234375 c 1024
EndSplineSet
EndChar

StartChar: florin
Encoding: 402 402 160
Width: 480
VWidth: 0
Flags: HW
LayerCount: 2
Fore
SplineSet
518.717773438 607.237304688 m 4
 517.35546875 620.158203125 509.44140625 632.217773438 498.129882812 638.609375 c 4
 492.0390625 642.05078125 485.096679688 643.888671875 478.111328125 644.271484375 c 4
 471.125976562 644.653320312 464.09765625 643.602539062 457.413085938 641.5390625 c 4
 444.043945312 637.41015625 432.2265625 629.352539062 421.448242188 620.4296875 c 4
 383.103515625 588.684570312 356.044921875 545.557617188 332.01171875 501.962890625 c 4
 278.192382812 404.338867188 236.260742188 300.7109375 188.641601562 199.918945312 c 4
 128.973632812 73.6240234375 60.2216796875 -68.4697265625 -18.62109375 -183.771484375 c 4
 -24.9248046875 -192.991210938 -31.3212890625 -202.202148438 -38.9130859375 -210.39453125 c 4
 -46.50390625 -218.586914062 -55.3779296875 -225.778320312 -65.626953125 -230.215820312 c 4
 -82.3125 -237.439453125 -102.25 -236.682617188 -118.338867188 -228.21484375 c 4
 -134.428710938 -219.748046875 -146.341796875 -203.743164062 -149.834960938 -185.900390625 c 1028
119.149414062 295.125976562 m 4
 165.51171875 266.8125 220.578125 252.979492188 274.81640625 256.022460938 c 4
 309.567382812 257.971679688 343.564453125 266.614257812 377.131835938 275.810546875 c 4
 409.623046875 284.7109375 441.9609375 294.170898438 474.125976562 304.184570312 c 1028
EndSplineSet
EndChar

StartChar: house
Encoding: 8962 8962 161
Width: 480
VWidth: 0
Flags: HW
LayerCount: 2
Fore
SplineSet
428.473632812 432.673828125 m 5
 428.473632812 432.673828125 426.107421875 288.688476562 424.087890625 216.7265625 c 4
 422.33203125 154.145507812 417.483398438 28.9736328125 417.483398438 28.9736328125 c 5
 417.483398438 28.9736328125 310.142578125 18.88671875 221.087890625 13.490234375 c 4
 145.150390625 8.888671875 62.5166015625 0.26953125 62.5166015625 0.26953125 c 5
 62.5166015625 0.26953125 67.365234375 125.44140625 69.12109375 188.022460938 c 5
 71.2109375 259.982421875 73.5068359375 403.969726562 73.5068359375 403.969726562 c 5
 132 514 143.532226562 530.380859375 169 573 c 4
 218 655 237 686 260 722.388671875 c 5
 291 674 324 616 346 580 c 4
 389.618164062 508.625 388 512 428.473632812 432.673828125 c 5
EndSplineSet
EndChar

StartChar: dagger
Encoding: 8224 8224 162
Width: 480
VWidth: 0
Flags: HW
LayerCount: 2
Fore
SplineSet
32.517578125 435.490234375 m 4
 108.302734375 442.37109375 144.150390625 448.072265625 220.127929688 452.725585938 c 0
 309.159179688 458.098632812 338.3203125 461.899414062 427.482421875 464.193359375 c 1024
237.20703125 629.590820312 m 0
 235.064453125 558.749023438 233.181640625 487.97265625 231.494140625 417.130859375 c 0
 229.220703125 321.451171875 227.337890625 95.771484375 225.779296875 0.0927734375 c 1024
EndSplineSet
EndChar

StartChar: daggerdbl
Encoding: 8225 8225 163
Width: 480
VWidth: 0
Flags: HW
LayerCount: 2
Fore
SplineSet
32.517578125 135.490234375 m 4
 108.302734375 142.37109375 144.150390625 148.072265625 220.127929688 152.725585938 c 0
 309.159179688 158.098632812 345.3203125 161.899414062 434.482421875 164.193359375 c 1024
32.517578125 435.490234375 m 4
 108.302734375 442.37109375 144.150390625 448.072265625 220.127929688 452.725585938 c 0
 309.159179688 458.098632812 345.3203125 461.899414062 434.482421875 464.193359375 c 1024
237.20703125 629.590820312 m 0
 235.064453125 558.749023438 233.181640625 487.97265625 231.494140625 417.130859375 c 0
 229.220703125 321.451171875 227.337890625 95.771484375 225.779296875 0.0927734375 c 1024
EndSplineSet
EndChar

StartChar: alpha
Encoding: 945 945 164
Width: 480
VWidth: 0
Flags: HW
LayerCount: 2
Fore
SplineSet
425.4453125 -7.1396484375 m 4
 415.796875 -15.3125 403.146484375 -19.8603515625 390.500976562 -19.701171875 c 4
 377.856445312 -19.5419921875 365.325195312 -14.6767578125 355.883789062 -6.263671875 c 4
 348.111328125 0.6640625 342.518554688 9.779296875 338.592773438 19.4228515625 c 4
 334.666992188 29.06640625 332.328125 39.275390625 330.301757812 49.48828125 c 4
 321.693359375 92.87109375 318.45703125 137.177734375 317.837890625 181.40234375 c 4
 317.338867188 216.984375 318.520507812 252.6484375 315.434570312 288.099609375 c 4
 313.7734375 307.184570312 310.608398438 326.881835938 299.922851562 342.78125 c 4
 293.4140625 352.465820312 284.333984375 360.30078125 274.143554688 365.985351562 c 4
 263.953125 371.668945312 252.668945312 375.249023438 241.168945312 377.23046875 c 4
 201.666992188 384.037109375 159.071289062 370.947265625 130.782226562 342.547851562 c 4
 102.153320312 313.806640625 89.6962890625 273.216796875 77.2705078125 234.599609375 c 4
 68.75 208.12109375 59.7646484375 181.700195312 54.3486328125 154.416992188 c 4
 48.93359375 127.133789062 47.171875 98.73828125 53.1630859375 71.576171875 c 4
 58.0419921875 49.45703125 68.205078125 28.287109375 83.7783203125 11.8388671875 c 4
 99.3525390625 -4.6083984375 120.495117188 -16.0908203125 143.021484375 -18.4580078125 c 4
 163.40625 -20.6005859375 184.216796875 -15.2705078125 202.052734375 -5.1728515625 c 4
 219.889648438 4.92578125 234.866210938 19.611328125 246.916015625 36.19140625 c 4
 264.374023438 60.2119140625 275.793945312 87.9833984375 287.270507812 115.37109375 c 4
 313.397460938 177.724609375 340.654296875 239.599609375 366.883789062 301.91015625 c 4
 373.114257812 316.711914062 379.373046875 331.693359375 388.84765625 344.66015625 c 4
 398.322265625 357.626953125 411.481445312 368.588867188 427.130859375 372.193359375 c 4
 441.748046875 375.559570312 457.80859375 371.984375 469.616210938 362.734375 c 1028
EndSplineSet
EndChar

StartChar: infinity
Encoding: 8734 8734 165
Width: 480
VWidth: 0
Flags: HW
LayerCount: 2
Fore
SplineSet
205.645507812 132.916015625 m 0
 191.708984375 109.008789062 177.241210938 84.8935546875 156.9765625 66.046875 c 0
 146.844726562 56.6240234375 135.299804688 48.609375 122.541015625 43.25390625 c 0
 109.783203125 37.8974609375 95.779296875 35.2568359375 82 36.509765625 c 0
 65.4169921875 38.017578125 49.53515625 45.1845703125 36.8193359375 55.935546875 c 0
 24.1044921875 66.6865234375 14.5068359375 80.9130859375 8.4189453125 96.4111328125 c 0
 -3.7568359375 127.408203125 -1.8251953125 162.459960938 6.896484375 194.599609375 c 0
 17.3359375 233.071289062 37.4248046875 269.086914062 65.7958984375 297.087890625 c 0
 79.6513671875 310.762695312 95.658203125 322.634765625 113.905273438 329.416015625 c 0
 132.153320312 336.196289062 152.82421875 337.56640625 171.052734375 330.734375 c 0
 183.44140625 326.08984375 194.326171875 317.823242188 202.833007812 307.690429688 c 0
 211.33984375 297.557617188 217.528320312 285.600585938 221.767578125 273.067382812 c 0
 230.247070312 248.001953125 230.983398438 221.060546875 231.154296875 194.599609375 c 0
 231.315429688 169.62890625 231.075195312 144.38671875 236.705078125 120.057617188 c 0
 242.334960938 95.7294921875 254.563476562 71.96875 275.008789062 57.630859375 c 0
 291.211914062 46.2685546875 311.672851562 41.62109375 331.392578125 43.294921875 c 0
 351.112304688 44.9697265625 370.064453125 52.716796875 386.299804688 64.033203125 c 0
 418.771484375 86.6669921875 439.7109375 122.252929688 456.23828125 158.217773438 c 0
 469.646484375 187.393554688 481.010742188 218.541992188 480.145507812 250.638671875 c 0
 479.712890625 266.6875 476.130859375 282.7734375 468.639648438 296.97265625 c 0
 461.1484375 311.172851562 449.6328125 323.409179688 435.346679688 330.734375 c 0
 422.28515625 337.430664062 407.227539062 339.872070312 392.603515625 338.610351562 c 0
 377.978515625 337.349609375 363.782226562 332.482421875 350.94921875 325.356445312 c 0
 325.284179688 311.102539062 305.465820312 288.342773438 287.96875 264.768554688 c 0
 257.069335938 223.139648438 231.75390625 177.706054688 205.645507812 132.916015625 c 0
EndSplineSet
EndChar

StartChar: OE
Encoding: 338 338 166
Width: 480
VWidth: 0
Flags: HW
LayerCount: 2
Fore
SplineSet
310.7578125 689.213867188 m 4
 297.908203125 689.99609375 284.922851562 688.526367188 272.572265625 684.891601562 c 4
 243.01953125 676.194335938 218.12890625 655.413085938 199.53125 630.853515625 c 4
 180.93359375 606.294921875 168.016601562 577.971679688 156.037109375 549.588867188 c 4
 116.930664062 456.932617188 86.1640625 360.849609375 44.869140625 269.147460938 c 4
 26.92578125 229.297851562 6.609375 188.681640625 6.0205078125 144.982421875 c 4
 5.7265625 123.1328125 10.68359375 100.874023438 22.521484375 82.5068359375 c 4
 34.3583984375 64.1396484375 53.478515625 50.033203125 75.0556640625 46.5908203125 c 4
 88.009765625 44.5244140625 101.444335938 46.2919921875 113.744140625 50.8515625 c 4
 126.043945312 55.4111328125 137.236328125 62.69921875 146.982421875 71.478515625 c 4
 166.475585938 89.0380859375 180.001953125 112.149414062 192.248046875 135.3515625 c 4
 243.334960938 232.134765625 277.423828125 336.758789062 316.025390625 439.1640625 c 4
 325.1796875 463.44921875 334.750976562 488.529296875 333.44140625 514.450195312 c 4
 332.787109375 527.41015625 329.28515625 540.385742188 322.16796875 551.236328125 c 4
 315.05078125 562.086914062 304.1484375 570.670898438 291.555664062 573.803710938 c 4
 281.291015625 576.357421875 270.1953125 575.204101562 260.540039062 570.881835938 c 4
 250.885742188 566.55859375 242.69921875 559.133789062 237.181640625 550.108398438 c 4
 231.663085938 541.083007812 228.794921875 530.5078125 228.673828125 519.9296875 c 4
 228.551757812 509.3515625 231.14453125 498.791015625 235.859375 489.321289062 c 4
 243.255859375 474.467773438 255.73828125 462.483398438 270.092773438 454.161132812 c 4
 284.446289062 445.83984375 300.626953125 441.022460938 317.005859375 438.370117188 c 4
 373.255859375 429.260742188 431.284179688 445.409179688 481.280273438 472.750976562 c 4
 502.305664062 484.25 522.431640625 497.870117188 538.7734375 515.3984375 c 4
 555.116210938 532.92578125 567.557617188 554.625976562 571.479492188 578.266601562 c 4
 574.622070312 597.2109375 572.146484375 617.079101562 564.280273438 634.596679688 c 4
 556.413085938 652.115234375 543.163085938 667.200195312 526.708984375 677.100585938 c 4
 509.2421875 687.609375 488.419921875 692.162109375 468.077148438 690.84765625 c 4
 447.735351562 689.532226562 427.915039062 682.473632812 410.778320312 671.43359375 c 4
 376.505859375 649.352539062 353.888671875 612.220703125 342.696289062 573.016601562 c 4
 335.659179688 548.369140625 332.71875 522.392578125 335.748046875 496.939453125 c 4
 338.77734375 471.487304688 347.921875 446.575195312 363.4296875 426.166992188 c 4
 387.90625 393.954101562 428.327148438 374.504882812 468.770507812 375.477539062 c 5
 409.185546875 366.224609375 352.229492188 340.571289062 305.8125 302.081054688 c 4
 276.75 277.979492188 251.758789062 248.892578125 232.869140625 216.201171875 c 4
 219.202148438 192.547851562 208.600585938 166.442382812 207.338867188 139.153320312 c 4
 206.708984375 125.508789062 208.458984375 111.692382812 213.131835938 98.857421875 c 4
 217.8046875 86.0224609375 225.451171875 74.1943359375 235.702148438 65.1669921875 c 4
 249.716796875 52.8271484375 268.075195312 46.1513671875 286.608398438 43.875 c 4
 305.141601562 41.59765625 323.950195312 43.4697265625 342.360351562 46.5908203125 c 4
 390.870117188 54.8154296875 437.883789062 71.7861328125 480.461914062 96.4423828125 c 1028
EndSplineSet
EndChar
